<?xml version="1.0" encoding="UTF-8" standalone="no"?>
<!-- Created with Inkscape (http://www.inkscape.org/) -->

<svg
   xmlns:dc="http://purl.org/dc/elements/1.1/"
   xmlns:cc="http://creativecommons.org/ns#"
   xmlns:rdf="http://www.w3.org/1999/02/22-rdf-syntax-ns#"
   xmlns:svg="http://www.w3.org/2000/svg"
   xmlns="http://www.w3.org/2000/svg"
   xmlns:sodipodi="http://sodipodi.sourceforge.net/DTD/sodipodi-0.dtd"
   xmlns:inkscape="http://www.inkscape.org/namespaces/inkscape"
   id="svg3004"
   version="1.1"
   inkscape:version="0.48.4 r9939"
   width="990"
   height="765"
   xml:space="preserve"
   sodipodi:docname="ks case dimension.PDF"><metadata
     id="metadata3010"><rdf:RDF><cc:Work
         rdf:about=""><dc:format>image/svg+xml</dc:format><dc:type
           rdf:resource="http://purl.org/dc/dcmitype/StillImage" /><dc:title></dc:title></cc:Work></rdf:RDF></metadata><defs
     id="defs3008" /><sodipodi:namedview
     pagecolor="#ffffff"
     bordercolor="#666666"
     borderopacity="1"
     objecttolerance="10"
     gridtolerance="10"
     guidetolerance="10"
     inkscape:pageopacity="0"
     inkscape:pageshadow="2"
     inkscape:window-width="1366"
     inkscape:window-height="744"
     id="namedview3006"
     showgrid="false"
     inkscape:zoom="0.87256052"
     inkscape:cx="106.1915"
     inkscape:cy="418.16411"
     inkscape:window-x="0"
     inkscape:window-y="24"
     inkscape:window-maximized="1"
     inkscape:current-layer="g3012" /><g
     id="g3012"
     inkscape:groupmode="layer"
     inkscape:label="ks case dimension"
     transform="matrix(1.25,0,0,-1.25,0,765)"><g
       id="g3014"
       transform="translate(352.3,366.2)"><path
         d="M 0,0 -0.1,0.5 -0.2,1 -0.3,1.5 -0.5,1.9 -0.7,2.4 -1,2.8 -1.4,3.1 -1.8,3.5 -2.2,3.8 -2.6,4 -3.1,4.2 -3.6,4.3 -4.1,4.4 -4.6,4.4 -5.1,4.4 -5.6,4.3 -6.1,4.1 -6.5,3.9 -6.9,3.6 -7.3,3.3 -7.7,3 -8,2.6 -8.3,2.2 -8.5,1.7 -8.7,1.2 -8.8,0.7 -8.9,0.2 l 0,-0.5 0.1,-0.5 0.1,-0.5 0.2,-0.4 0.2,-0.5 0.3,-0.4 0.3,-0.4 0.4,-0.3 0.4,-0.4 0.4,-0.2 0.4,-0.2 0.5,-0.2 0.5,-0.1 0.5,0 0.5,0 0.5,0.1 0.5,0.1 0.5,0.2 0.4,0.2 0.4,0.3 0.4,0.3 0.4,0.4 0.3,0.4 0.2,0.4 0.2,0.5 0.1,0.5 0.1,0.5 L 0,0 m -7,-6.3 5.1,12.6"
         style="fill:none;stroke:#808080;stroke-opacity:1;stroke-width:0.51;stroke-linecap:butt;stroke-linejoin:miter;stroke-miterlimit:10;stroke-dasharray:none"
         id="path3016" /></g><text
       transform="matrix(1.000041,0,0,-1,355.1755,361.3846)"
       id="text3018"><tspan
         style="fill:#808080;fill-opacity:1;fill-rule:nonzero;stroke:none;font-family:Century Gothic;font-variant:normal;font-weight:normal;font-stretch:normal;font-size:13.2283;writing-mode:lr;-inkscape-font-specification:CenturyGothic"
         x="0 7.32877867 14.65755734 18.32194667 25.65072534 29.31511467 40.07016351 49.85950686 56.44747035 63.53812986"
         y="0"
         sodipodi:role="line"
         id="tspan3020">34.6 CASE </tspan></text>
<g
       id="g3022"
       transform="translate(356.3,409.8)"><path
         d="M 0,0 0,0.5 -0.1,1 -0.3,1.5 -0.5,2 -0.7,2.4 -1,2.8 -1.4,3.2 -1.7,3.5 -2.2,3.8 -2.6,4.1 -3.1,4.2 -3.6,4.4 -4,4.4 -4.6,4.5 -5.1,4.4 -5.5,4.3 -6,4.2 -6.5,3.9 -6.9,3.7 -7.3,3.4 -7.7,3 -8,2.6 -8.3,2.2 -8.5,1.8 -8.7,1.3 -8.8,0.8 l 0,-0.5 0,-0.5 0,-0.5 0.1,-0.5 0.2,-0.5 0.2,-0.4 0.3,-0.4 0.3,-0.4 0.4,-0.4 0.4,-0.3 0.4,-0.3 0.5,-0.2 0.5,-0.1 0.4,-0.1 0.5,-0.1 0.6,0.1 0.4,0 0.5,0.2 0.5,0.1 0.4,0.3 0.5,0.3 0.3,0.3 0.4,0.4 0.3,0.4 0.2,0.4 0.2,0.5 L -0.1,-1 0,-0.5 0,0 m -6.9,-6.3 5,12.6"
         style="fill:none;stroke:#808080;stroke-opacity:1;stroke-width:0.51;stroke-linecap:butt;stroke-linejoin:miter;stroke-miterlimit:10;stroke-dasharray:none"
         id="path3024" /></g><text
       transform="matrix(0.999972,0,0,-1,359.1991,405.0446)"
       id="text3026"><tspan
         style="fill:#808080;fill-opacity:1;fill-rule:nonzero;stroke:none;font-family:Century Gothic;font-variant:normal;font-weight:normal;font-stretch:normal;font-size:13.2283;writing-mode:lr;-inkscape-font-specification:CenturyGothic"
         x="0 7.328273 14.65654601 18.32068251 25.64895551 29.31309201 37.14402634 47.89833311 55.4911647"
         y="0"
         sodipodi:role="line"
         id="tspan3028">31.4 PCB </tspan></text>
<text
       transform="matrix(1.000301,0,0,-1,53.454505,325.34409)"
       id="text3030"><tspan
         style="fill:#808080;fill-opacity:1;fill-rule:nonzero;stroke:none;font-family:Century Gothic;font-variant:normal;font-weight:normal;font-stretch:normal;font-size:13.2283;writing-mode:lr;-inkscape-font-specification:CenturyGothic"
         x="0 7.33068407 14.66136814 18.32671018 25.65739425"
         y="0"
         sodipodi:role="line"
         id="tspan3032">45.5 </tspan></text>
<text
       transform="matrix(1.000301,0,0,-1,320.32223,269.00476)"
       id="text3034"><tspan
         style="fill:#808080;fill-opacity:1;fill-rule:nonzero;stroke:none;font-family:Century Gothic;font-variant:normal;font-weight:normal;font-stretch:normal;font-size:13.2283;writing-mode:lr;-inkscape-font-specification:CenturyGothic"
         x="0 7.33068407 10.99602611 18.32671018"
         y="0"
         sodipodi:role="line"
         id="tspan3036">3.2 </tspan></text>
<text
       transform="matrix(1.000301,0,0,-1,189.243,472.01948)"
       id="text3038"><tspan
         style="fill:#000000;fill-opacity:1;fill-rule:nonzero;stroke:none;font-family:Century Gothic;font-variant:normal;font-weight:normal;font-stretch:normal;font-size:13.2283;writing-mode:lr;-inkscape-font-specification:CenturyGothic"
         x="0 7.33068407 14.66136814"
         y="0"
         sodipodi:role="line"
         id="tspan3040">19 </tspan><tspan
         style="fill:#808080;fill-opacity:1;fill-rule:nonzero;stroke:none;font-family:Century Gothic;font-variant:normal;font-weight:normal;font-stretch:normal;font-size:13.2283;writing-mode:lr;-inkscape-font-specification:CenturyGothic"
         x="267.8333901 275.16407417"
         y="0.3174792"
         sodipodi:role="line"
         id="tspan3042">6 </tspan></text>
<text
       transform="matrix(1.000301,0,0,-1,451.57342,214.25283)"
       id="text3044"><tspan
         style="fill:#808080;fill-opacity:1;fill-rule:nonzero;stroke:none;font-family:Century Gothic;font-variant:normal;font-weight:normal;font-stretch:normal;font-size:13.2283;writing-mode:lr;-inkscape-font-specification:CenturyGothic"
         x="0 7.33068407 10.99602611 18.32671018"
         y="0"
         sodipodi:role="line"
         id="tspan3046">2.4 </tspan><tspan
         style="fill:#808080;fill-opacity:1;fill-rule:nonzero;stroke:none;font-family:Century Gothic;font-variant:normal;font-weight:normal;font-stretch:normal;font-size:13.2283;writing-mode:lr;-inkscape-font-specification:CenturyGothic"
         x="187.4317827 194.76246677 198.42780881 205.75849288"
         y="-256.35123"
         sodipodi:role="line"
         id="tspan3048">7.5 </tspan><tspan
         style="fill:#808080;fill-opacity:1;fill-rule:nonzero;stroke:none;font-family:Century Gothic;font-variant:normal;font-weight:normal;font-stretch:normal;font-size:13.2283;writing-mode:lr;-inkscape-font-specification:CenturyGothic"
         x="187.4317827 194.76246677 198.42780881 205.75849288"
         y="1.4021998"
         sodipodi:role="line"
         id="tspan3050">2.4 </tspan></text>
<g
       id="g3144"
       transform="translate(252.3,469.1)"><path
         d="m 0,0 -9.4,-1.4 0,2.9 L 0,0 m -107.8,0 9.4,1.5 0,-2.9 -9.4,1.4"
         style="fill:none;stroke:#000000;stroke-opacity:1;stroke-width:0.51;stroke-linecap:butt;stroke-linejoin:miter;stroke-miterlimit:10;stroke-dasharray:none"
         id="path3146" /></g><g
       id="g3152"
       transform="translate(293.1,347.9)"><path
         d="M 0,0 9.4,1 8.7,3.8 0,0 m -17.6,19.1 8.8,3.4 -1.4,2.5 -7.4,-5.9 m -209.3,84.5 1.5,-9.4 -2.9,0 1.4,9.4 m 0,-258 -1.4,9.4 2.9,0 -1.5,-9.4 m 250.4,30.9 -1.4,9.4 2.8,0 -1.4,-9.4 m 0,-18.1 1.4,-9.4 -2.8,0 1.4,9.4 m 181.9,262.5 9.3,1.4 0,-2.8 -9.3,1.4 m 34,0 -9.4,-1.4 0,2.8 9.4,-1.4 m 0,-257.5 9.3,1.5 0,-2.9 -9.3,1.4 m -13.6,0 -9.4,-1.4 0,2.9 9.4,-1.5 m 207.2,256.4 -9.4,-1.4 0,2.8 9.4,-1.4 m -42.5,0 9.3,1.4 0,-2.8 -9.3,1.4 m 42.5,-257.7 9.4,1.4 0,-2.9 -9.4,1.5 m -13.6,0 -9.4,-1.5 0,2.9 9.4,-1.4"
         style="fill:none;stroke:#808080;stroke-opacity:1;stroke-width:0.51;stroke-linecap:butt;stroke-linejoin:miter;stroke-miterlimit:10;stroke-dasharray:none"
         id="path3154" /></g><g
       id="g3156"
       transform="translate(252.3,432.5)"><path
         d="M 0,0 0,39.4 M -107.8,0 l 0,39.4 M 0,36.6 l -107.8,0"
         style="fill:none;stroke:#000000;stroke-opacity:1;stroke-width:0.51;stroke-linecap:round;stroke-linejoin:round;stroke-miterlimit:10;stroke-dasharray:none"
         id="path3158" /></g><g
       id="g3164"
       transform="translate(293.1,347.9)"><path
         d="m 0,0 38.9,10.4 m 0,0 90.3,0 m -146.8,8.7 60.5,35 m 0,0 82.3,0 m -289.4,49.5 -65.5,0 m 65.5,-258 -65.5,0 m 2.8,258 0,-113.3 m 0,-144.7 0,128.9 m 179.8,-98 73.4,0 m -73.4,-18.1 73.4,0 m 22.9,59.8 -25.7,0 m 0,0 0,-41.7 m 0,-18.1 0,-18 m 181.9,232.3 0,51 m 34,-17.3 0,17.3 m -34,-2.8 -45.1,0 m 45.1,0 34,0 m 0,-257.5 18,0 m -18,0 -13.6,0 m 0,0 -71,0 m 278.2,243 0,16.2 m -42.5,-49.9 0,49.9 m 42.5,-2.8 -42.5,0 m 0,0 -48.3,0 m 90.8,-257.7 18,0 m -18,0 -13.6,0 m 0,0 -77.2,0"
         style="fill:none;stroke:#808080;stroke-opacity:1;stroke-width:0.51;stroke-linecap:round;stroke-linejoin:round;stroke-miterlimit:10;stroke-dasharray:none"
         id="path3166" /></g><g
       id="g3168"
       transform="translate(252.3,469.1)"><path
         d="m 0,0 -9.4,-1.4 0,2.9 m -98.4,-1.5 9.4,1.5 0,-2.9"
         style="fill:#000000;fill-opacity:1;fill-rule:nonzero;stroke:none"
         id="path3170" /></g><g
       id="g3172"
       transform="translate(293.1,347.9)"><path
         d="M 0,0 9.4,1 8.7,3.8 m -26.3,15.3 8.8,3.4 -1.4,2.5 m -216.7,78.6 1.5,-9.4 -2.9,0 m 1.4,-248.6 -1.4,9.4 2.9,0 m 248.9,21.5 -1.4,9.4 2.8,0 m -1.4,-27.5 1.4,-9.4 -2.8,0 m 183.3,271.9 9.3,1.4 0,-2.8 m 24.7,1.4 -9.4,-1.4 0,2.8 m 9.4,-258.9 9.3,1.5 0,-2.9 m -22.9,1.4 -9.4,-1.4 0,2.9 m 216.6,254.9 -9.4,-1.4 0,2.8 m -33.1,-1.4 9.3,1.4 0,-2.8 m 33.2,-256.3 9.4,1.4 0,-2.9 m -23,1.5 -9.4,-1.5 0,2.9"
         style="fill:#808080;fill-opacity:1;fill-rule:nonzero;stroke:none"
         id="path3174" /></g><g
       id="g3176"
       transform="translate(198.4,229.8)"><path
         d="m 0,0 -4.6,0.1 -4.5,0.4 -4.5,0.5 -4.5,0.8 -4.4,1 -4.4,1.2 -4.3,1.4 -4.3,1.7 -4.1,1.8 -4.1,2.1 -4,2.2 -3.8,2.4 -3.7,2.7 -3.6,2.8 -3.5,2.9 -3.2,3.2 -3.2,3.3 -3,3.4 -2.8,3.6 -2.6,3.7 -2.4,3.9 -2.3,3.9 -2,4.1 -1.8,4.1 -1.7,4.3 -1.4,4.3 -1.2,4.4 -1,4.4 -0.8,4.5 -0.6,4.5 -0.3,4.6 -0.1,4.5 0.1,4.6 0.3,4.5 0.6,4.5 0.8,4.5 1,4.4 1.2,4.4 1.4,4.3 1.7,4.3 1.8,4.1 2,4.1 2.3,4 2.4,3.8 2.6,3.7 2.8,3.6 3,3.5 3.2,3.3 3.2,3.1 3.5,3 3.6,2.8 3.7,2.6 3.8,2.4 4,2.3 4.1,2 4.1,1.8 4.3,1.7 4.3,1.4 4.4,1.2 4.4,1 4.5,0.8 4.5,0.6 4.5,0.3 4.6,0.1 4.5,-0.1 4.6,-0.3 4.5,-0.6 4.5,-0.8 4.4,-1 4.4,-1.2 4.3,-1.4 4.3,-1.7 4.1,-1.8 4.1,-2 3.9,-2.3 3.9,-2.4 3.7,-2.6 3.6,-2.8 3.4,-3 3.3,-3.1 3.2,-3.3 2.9,-3.5 2.8,-3.6 2.7,-3.7 2.4,-3.8 2.2,-4 2.1,-4.1 1.8,-4.1 1.7,-4.3 1.4,-4.3 1.2,-4.4 1,-4.4 0.8,-4.5 0.5,-4.5 0.4,-4.5 0.1,-4.6 -0.1,-4.5 -0.4,-4.6 -0.5,-4.5 -0.8,-4.5 -1,-4.4 L 88.7,65.8 87.3,61.5 85.6,57.2 83.8,53.1 81.7,49 79.5,45.1 77.1,41.2 74.4,37.5 71.6,33.9 68.7,30.5 65.5,27.2 62.2,24 58.8,21.1 55.2,18.3 51.5,15.6 47.6,13.2 43.7,11 39.6,8.9 35.5,7.1 31.2,5.4 26.9,4 22.5,2.8 18.1,1.8 13.6,1 9.1,0.5 4.5,0.1 0,0 m 0,2.9 4.5,0.1 4.4,0.3 4.5,0.6 4.4,0.7 4.4,1 4.3,1.2 4.2,1.5 4.2,1.6 4.1,1.9 4,2 3.8,2.2 3.8,2.5 3.7,2.6 3.5,2.8 3.3,2.9 3.2,3.2 3.1,3.3 2.8,3.4 2.8,3.6 2.5,3.7 2.3,3.8 2.2,3.9 1.9,4.1 1.7,4.1 1.6,4.2 1.3,4.3 1.1,4.3 0.9,4.4 0.7,4.4 0.4,4.5 0.2,4.5 0,4.5 -0.2,4.4 -0.4,4.5 -0.7,4.4 -0.9,4.4 -1.1,4.3 -1.3,4.3 -1.6,4.2 -1.7,4.2 -1.9,4 -2.2,3.9 -2.3,3.9 -2.5,3.7 -2.8,3.5 -2.8,3.5 -3.1,3.3 -3.2,3.1 -3.3,2.9 -3.5,2.8 -3.7,2.7 -3.8,2.4 -3.8,2.2 -4,2.1 -4.1,1.8 -4.2,1.7 -4.2,1.4 -4.3,1.2 -4.4,1 -4.4,0.8 -4.5,0.5 -4.4,0.4 -4.5,0.1 -4.5,-0.1 -4.5,-0.4 -4.4,-0.5 -4.4,-0.8 -4.4,-1 -4.3,-1.2 -4.2,-1.4 -4.2,-1.7 -4.1,-1.8 -4,-2.1 -3.9,-2.2 -3.7,-2.4 -3.7,-2.7 -3.5,-2.8 -3.3,-2.9 -3.2,-3.1 -3.1,-3.3 -2.9,-3.5 -2.7,-3.5 -2.5,-3.7 -2.3,-3.9 -2.2,-3.9 -1.9,-4 -1.8,-4.2 -1.5,-4.2 -1.3,-4.3 -1.1,-4.3 -0.9,-4.4 -0.7,-4.4 -0.4,-4.5 -0.2,-4.4 0,-4.5 0.2,-4.5 0.4,-4.5 0.7,-4.4 0.9,-4.4 1.1,-4.3 1.3,-4.3 1.5,-4.2 1.8,-4.1 1.9,-4.1 2.2,-3.9 2.3,-3.8 2.5,-3.7 2.7,-3.6 2.9,-3.4 3.1,-3.3 3.2,-3.2 3.3,-2.9 3.5,-2.8 3.7,-2.6 3.7,-2.5 3.9,-2.2 4,-2 4.1,-1.9 4.2,-1.6 4.2,-1.5 4.3,-1.2 4.4,-1 4.4,-0.7 L -9,3.3 -4.5,3 0,2.9 m 0,-5.4 4.6,0.1 4.6,0.3 4.6,0.6 4.5,0.7 4.5,1 4.4,1.2 4.4,1.5 4.3,1.6 4.2,1.8 4.2,2.1 4,2.2 3.9,2.4 3.8,2.7 3.6,2.8 3.6,2.9 3.3,3.2 3.2,3.2 3.1,3.5 2.9,3.6 2.7,3.7 2.5,3.9 2.3,3.9 2.2,4.1 1.9,4.2 1.7,4.2 1.6,4.4 1.3,4.4 1.1,4.5 0.9,4.5 0.6,4.5 0.5,4.6 0.2,4.6 0,4.6 -0.2,4.6 -0.5,4.6 -0.6,4.5 -0.9,4.6 -1.1,4.4 -1.3,4.4 -1.6,4.4 -1.7,4.2 -1.9,4.2 -2.2,4.1 -2.3,4 -2.5,3.8 -2.7,3.7 -2.9,3.6 -3.1,3.5 -3.2,3.3 -3.3,3.1 -3.6,3 -3.6,2.8 -3.8,2.6 -3.9,2.4 -4,2.2 -4.2,2.1 -4.2,1.8 -4.3,1.7 -4.4,1.4 -4.4,1.2 -4.5,1 -4.5,0.8 -4.6,0.5 -4.6,0.3 -4.6,0.2 -4.6,-0.2 -4.6,-0.3 -4.6,-0.5 -4.5,-0.8 -4.5,-1 -4.4,-1.2 -4.4,-1.4 -4.3,-1.7 -4.2,-1.8 -4.2,-2.1 -4,-2.2 -3.9,-2.4 -3.8,-2.6 -3.6,-2.8 -3.6,-3 -3.3,-3.1 -3.2,-3.3 -3.1,-3.5 -2.9,-3.6 -2.7,-3.7 -2.5,-3.8 -2.3,-4 -2.2,-4.1 -1.9,-4.2 -1.8,-4.2 -1.5,-4.4 -1.3,-4.4 -1.1,-4.4 -0.9,-4.6 -0.7,-4.5 -0.4,-4.6 -0.2,-4.6 0,-4.6 0.2,-4.6 0.4,-4.6 0.7,-4.5 0.9,-4.5 1.1,-4.5 1.3,-4.4 1.5,-4.4 1.8,-4.2 1.9,-4.2 2.2,-4.1 2.3,-3.9 2.5,-3.9 2.7,-3.7 2.9,-3.6 3.1,-3.5 3.2,-3.2 3.3,-3.2 3.6,-2.9 3.6,-2.8 3.8,-2.7 3.9,-2.4 4,-2.2 4.2,-2.1 4.2,-1.8 4.3,-1.6 4.4,-1.5 4.4,-1.2 4.5,-1 4.5,-0.7 4.6,-0.6 4.6,-0.3 4.6,-0.1 m 0,-2.9 -4.7,0.1 -4.7,0.4 -4.7,0.5 -4.6,0.8 -4.6,1 -4.5,1.3 -4.5,1.4 -4.4,1.7 -4.3,1.8 -4.3,2.1 -4.1,2.3 -4,2.4 -3.9,2.7 -3.7,2.8 -3.6,3 -3.5,3.2 -3.3,3.4 -3.1,3.5 -3,3.6 -2.8,3.8 -2.6,3.9 -2.4,4.1 -2.3,4.1 -2,4.2 -1.8,4.4 -1.6,4.4 -1.4,4.5 -1.1,4.6 -1,4.6 -0.7,4.6 -0.5,4.7 -0.3,4.7 -0.1,4.7 0.2,4.7 0.4,4.7 0.6,4.6 0.8,4.7 1.1,4.5 1.3,4.6 1.5,4.4 1.7,4.4 1.9,4.3 2.1,4.2 2.4,4.1 2.5,4 2.7,3.8 2.8,3.7 3.1,3.6 3.2,3.4 3.4,3.3 3.6,3.1 3.6,2.9 3.9,2.8 3.9,2.5 4.1,2.4 4.1,2.2 4.3,2 4.4,1.7 4.4,1.6 4.5,1.3 4.6,1.1 4.6,0.9 4.7,0.7 4.6,0.4 4.7,0.3 4.7,0 4.7,-0.3 4.7,-0.4 4.7,-0.7 4.6,-0.9 4.6,-1.1 4.5,-1.3 4.4,-1.6 4.4,-1.7 4.3,-2 4.1,-2.2 4.1,-2.4 3.9,-2.5 3.9,-2.8 3.6,-2.9 3.6,-3.1 3.4,-3.3 3.2,-3.4 3,-3.6 2.9,-3.7 2.7,-3.8 2.5,-4 2.4,-4.1 2.1,-4.2 1.9,-4.3 1.7,-4.4 1.5,-4.4 1.3,-4.6 1,-4.5 0.9,-4.7 0.6,-4.6 0.4,-4.7 0.2,-4.7 L 98,89.2 97.7,84.5 97.2,79.8 96.5,75.2 95.5,70.6 94.4,66 93,61.5 91.4,57.1 89.6,52.7 87.5,48.5 85.3,44.4 82.9,40.3 80.3,36.4 77.5,32.6 74.5,29 71.4,25.5 68.1,22.1 64.6,18.9 61,15.9 57.3,13.1 53.4,10.4 49.4,8 45.3,5.7 41,3.6 36.7,1.8 32.3,0.1 27.8,-1.3 23.3,-2.6 18.7,-3.6 14.1,-4.4 9.4,-4.9 4.7,-5.3 0,-5.4 m -92,132.1 12.5,33.7 m 9.1,35.7 -0.8,-4.6 -0.8,-4.5 -1,-4.5 -1.1,-4.5 -1.2,-4.5 -1.3,-4.4 -1.4,-4.4 -1.5,-4.3 m 9.1,35.7 3.8,25.6 m 0,0 133.2,0 m 0,0 3.8,-25.6 m 9.1,-35.7 -1.5,4.3 -1.4,4.4 -1.4,4.4 -1.2,4.5 -1,4.5 -1,4.5 -0.9,4.5 -0.7,4.6 M 79.5,160.4 92,126.7 m -47.2,64.1 -44.8,0 m 44.8,18.1 1.4,-0.1 1.4,-0.3 1.3,-0.6 1.2,-0.7 1.1,-0.9 0.9,-1.1 0.8,-1.2 0.5,-1.3 0.3,-1.4 0.2,-1.4 -0.2,-1.5 -0.3,-1.3 -0.5,-1.4 -0.8,-1.2 -0.9,-1.1 -1.1,-0.9 -1.2,-0.7 -1.3,-0.6 -1.4,-0.3 -1.4,-0.1 m -89.6,18.1 89.6,0 m -89.6,-18.1 -1.4,0.1 -1.4,0.3 -1.3,0.6 -1.2,0.7 -1.1,0.9 -0.9,1.1 -0.8,1.2 -0.5,1.4 -0.4,1.3 -0.1,1.5 0.1,1.4 0.4,1.4 0.5,1.3 0.8,1.2 0.9,1.1 1.1,0.9 1.2,0.7 1.3,0.6 1.4,0.3 1.4,0.1 M 0,190.8 l -44.8,0 m 0,-196.2 -1.4,-0.1 -1.4,-0.3 -1.3,-0.6 -1.2,-0.7 -1.1,-0.9 -0.9,-1.1 -0.8,-1.2 -0.5,-1.3 -0.4,-1.4 -0.1,-1.4 0.1,-1.5 0.4,-1.3 0.5,-1.4 0.8,-1.2 0.9,-1.1 1.1,-0.9 1.2,-0.7 1.3,-0.6 1.4,-0.3 1.4,-0.1 m 89.6,0 1.4,0.1 1.4,0.3 1.3,0.6 1.2,0.7 1.1,0.9 0.9,1.1 0.8,1.2 0.5,1.4 0.3,1.3 0.2,1.5 -0.2,1.4 -0.3,1.4 -0.5,1.3 -0.8,1.2 -0.9,1.1 -1.1,0.9 -1.2,0.7 -1.3,0.6 -1.4,0.3 -1.4,0.1 m 25.6,-5.2 0.7,4.5 0.9,4.6 1,4.5 1,4.4 1.2,4.5 1.4,4.4 1.4,4.4 1.5,4.3 m -159,0 1.5,-4.3 1.4,-4.4 1.3,-4.4 1.2,-4.5 1.1,-4.4 1,-4.5 0.8,-4.6 0.8,-4.5 M -92,58.7 -79.5,25 m 12.9,-61.3 133.2,0 m -137,25.7 3.8,-25.7 M 79.5,25 92,58.7 m -25.4,-95 3.8,25.7 M 0,-5.4 l -44.8,0 m 89.6,0 -44.8,0 m -44.8,-18.1 89.6,0 m 14.7,173.3 0.1,0 0.1,0 0,0.1 0.1,0 0,0.1 m 0,0 0.2,0.3 0.3,0.3 0.3,0.1 0.4,0.1 0.3,0 m 0,0 0.1,0 0.1,0.1 0.1,0 0,0.1 m 0,0 -0.1,-0.3 -0.2,-0.2 -0.3,-0.2 -0.3,-0.2 -0.2,-0.1 -0.3,-0.1 -0.4,-0.1 -0.3,0 m -0.3,0.2 0,-0.1 0.1,-0.1 0.1,0 0.1,0 m 0,0 -0.3,0 -0.3,0.1 -0.3,0.1 -0.3,0.1 -0.3,0.2 -0.2,0.2 -0.2,0.2 -0.2,0.3 m 0,0 0,0 0.1,-0.1 0.1,0 0.1,-0.1 m 0,0 0.4,0 0.4,-0.1 0.3,-0.2 0.2,-0.2 0.2,-0.3 m -1.5,3.6 0,0 -0.1,0 -0.1,-0.1 -0.1,0 m 0,0 0.2,0.2 0.2,0.3 0.2,0.2 0.3,0.2 0.3,0.1 0.3,0.1 0.3,0.1 0.3,0 m -0.3,-0.2 -0.2,-0.3 -0.3,-0.3 -0.3,-0.2 -0.3,-0.1 -0.4,0 m 1.8,1.1 0,0 -0.1,0 -0.1,-0.1 -0.1,-0.1 m 2.4,-1 0,0 0,0.1 -0.1,0 -0.1,0 -0.1,0 m 0,0 -0.4,0.1 -0.3,0.1 -0.4,0.2 -0.2,0.2 -0.2,0.3 m -0.3,0.2 0.3,0 0.4,-0.1 0.3,-0.1 0.2,-0.1 0.3,-0.2 0.3,-0.2 0.2,-0.3 0.1,-0.2 m -1.8,1 0,0 -0.1,0.1 -0.1,0.1 -0.1,0 m 2.1,-3.7 0.1,0 0,0.1 0,0.1 0,0.1 -0.1,0.1 m 0,0 -0.1,0.3 -0.1,0.4 0,0.4 0.1,0.3 0.1,0.3 m 0,0 0,0 0.1,0.1 0,0.2 -0.1,0.1 m 0,0 0.2,-0.3 0.1,-0.3 0,-0.3 0.1,-0.4 -0.1,-0.3 0,-0.3 -0.1,-0.3 -0.2,-0.3 m -4.2,0.4 0,0 0,-0.2 0,-0.1 0,-0.1 m 0,0 -0.1,0.3 -0.1,0.3 -0.1,0.3 0,0.3 0,0.4 0.1,0.3 0.1,0.3 0.1,0.3 m 0,-0.4 0.2,-0.3 0.1,-0.4 0,-0.4 -0.1,-0.3 -0.2,-0.3 m 0,2.1 0,-0.1 0,-0.1 0,-0.1 0,-0.1 m 2.1,-5.5 -1,0.1 -1,0.3 -0.9,0.6 -0.7,0.7 -0.6,0.9 -0.3,1 -0.2,1 0.2,1.1 0.3,1 0.6,0.9 0.7,0.7 0.9,0.6 1,0.3 1,0.1 1.1,-0.1 1,-0.3 0.8,-0.6 0.8,-0.7 0.5,-0.9 0.4,-1 0.1,-1.1 -0.1,-1 -0.4,-1 -0.5,-0.9 -0.8,-0.7 -0.8,-0.6 -1,-0.3 -1.1,-0.1 m 2.1,-113.2 0,0 0,0.1 -0.1,0.1 -0.1,0 -0.1,0 m 0,0 -0.4,0 -0.3,0.1 -0.4,0.2 -0.2,0.3 -0.2,0.2 m 0,0 0,0.1 -0.1,0.1 -0.1,0 -0.1,0 m 0,0 0.3,0 0.4,-0.1 0.3,-0.1 0.2,-0.1 0.3,-0.2 0.3,-0.2 0.2,-0.2 0.1,-0.3 m -1.8,-3.5 0.2,0.3 0.3,0.3 0.3,0.2 0.4,0.1 0.3,0 m 0,0 0.1,0 0.1,0 0.1,0.1 0,0.1 m 0,0 -0.1,-0.3 -0.2,-0.2 -0.3,-0.3 -0.3,-0.1 -0.2,-0.2 -0.3,-0.1 -0.4,0 -0.3,-0.1 m 0,0 0.1,0 0.1,0.1 0.1,0.1 m -2.1,3.7 0,0 -0.1,-0.1 -0.1,0 -0.1,-0.1 m 0,0 0.2,0.3 0.2,0.2 0.2,0.2 0.3,0.2 0.3,0.1 0.3,0.1 0.3,0.1 0.3,0 m -0.3,-0.2 -0.2,-0.3 -0.3,-0.2 -0.3,-0.2 -0.3,-0.1 -0.4,0 m 1.8,1 0,0 -0.1,0 -0.1,0 -0.1,-0.1 0,-0.1 m 0.3,-4.7 -0.3,0.1 -0.3,0 -0.3,0.1 -0.3,0.2 -0.3,0.1 -0.2,0.3 -0.2,0.2 -0.2,0.3 m 0,0 0,0 0.1,-0.1 0.1,-0.1 0.1,0 m 0,0 0.4,0 0.4,-0.1 0.3,-0.2 0.2,-0.3 0.2,-0.3 m 0,0 0,0 0.1,-0.1 0.1,-0.1 0.1,0 m 2.1,1.3 0.1,0 0,0.1 0,0.1 0,0.1 -0.1,0 m 0,0 -0.1,0.4 -0.1,0.3 0,0.4 0.1,0.3 0.1,0.3 m 0,0 0,0.1 0.1,0.1 0,0.1 -0.1,0.1 m 0,0 0.2,-0.3 0.1,-0.3 0,-0.3 0.1,-0.3 -0.1,-0.3 0,-0.3 -0.1,-0.4 -0.2,-0.2 m -2.1,-3.5 -1,0.1 -1,0.4 -0.9,0.5 -0.7,0.8 -0.6,0.9 -0.3,0.9 -0.2,1.1 0.2,1 0.3,1 0.6,0.9 0.7,0.7 0.9,0.6 1,0.3 1,0.2 1.1,-0.2 1,-0.3 0.8,-0.6 0.8,-0.7 0.5,-0.9 0.4,-1 0.1,-1 -0.1,-1.1 -0.4,-0.9 -0.5,-0.9 -0.8,-0.8 -0.8,-0.5 -1,-0.4 -1.1,-0.1 m -2.1,3.5 -0.1,0.2 -0.1,0.4 -0.1,0.3 0,0.3 0,0.3 0.1,0.3 0.1,0.3 0.1,0.3 m 0,-0.4 0.2,-0.3 0.1,-0.4 0,-0.3 -0.1,-0.4 -0.2,-0.3 m 0,0 0,0 0,-0.1 0,-0.1 0,-0.1 m 0,2.4 0,0 0,-0.1 0,-0.1 0,-0.1 0,-0.1 m -117.2,116 0,-0.1 0.1,-0.1 0.1,0 0.1,0 m 0,0 -0.4,0 -0.3,0.1 -0.3,0.1 -0.3,0.1 -0.2,0.2 -0.3,0.2 -0.2,0.2 -0.2,0.3 m 0,0 0.1,0 0,-0.1 0.1,0 0.1,-0.1 0.1,0 m 0,0 0.4,0 0.3,-0.1 0.3,-0.2 0.3,-0.2 0.2,-0.3 m 0.3,-0.2 0,0 0.1,0 0.1,0.1 0.1,0 0,0.1 m 0,0 0.2,0.3 0.3,0.3 0.3,0.1 0.3,0.1 0.4,0 m 0,0 0,0 0.1,0.1 0.1,0 0.1,0.1 m 0,0 -0.2,-0.3 -0.2,-0.2 -0.2,-0.2 -0.3,-0.2 -0.3,-0.1 -0.3,-0.1 -0.3,-0.1 -0.3,0 m 2.1,3.7 0,0 -0.1,0.1 -0.1,0 -0.1,0 m 0,0 -0.4,0.1 -0.4,0.1 -0.3,0.2 -0.3,0.2 -0.1,0.3 m -0.3,0.2 0.3,0 0.3,-0.1 0.3,-0.1 0.3,-0.1 0.3,-0.2 0.2,-0.2 0.2,-0.3 0.2,-0.2 m -1.8,1 -0.1,0 0,0.1 -0.2,0.1 m -1.8,-1.1 -0.1,0 -0.1,0 -0.1,-0.1 -0.1,0 m 0,0 0.2,0.2 0.2,0.3 0.3,0.2 0.2,0.2 0.3,0.1 0.3,0.1 0.3,0.1 0.4,0 m -0.3,-0.2 -0.2,-0.3 -0.3,-0.3 -0.4,-0.2 -0.3,-0.1 -0.3,0 m 1.8,1.1 -0.1,0 -0.1,0 0,-0.1 -0.1,-0.1 m -1.8,-3.1 -0.1,0 0,-0.2 0,-0.1 0,-0.1 m 0,0 -0.1,0.3 -0.1,0.3 -0.1,0.3 0,0.3 0,0.4 0.1,0.3 0.1,0.3 0.1,0.3 m 0,0 0,-0.1 0,-0.1 0,-0.1 0,-0.1 0.1,0 m 0,0 0.1,-0.3 0.1,-0.4 0,-0.4 -0.1,-0.3 -0.1,-0.3 m 2.1,-3.8 -1.1,0.1 -1,0.3 -0.9,0.6 -0.7,0.7 -0.5,0.9 -0.4,1 -0.1,1 0.1,1.1 0.4,1 0.5,0.9 0.7,0.7 0.9,0.6 1,0.3 1.1,0.1 1,-0.1 1,-0.3 0.9,-0.6 0.7,-0.7 0.6,-0.9 0.3,-1 0.1,-1.1 -0.1,-1 -0.3,-1 -0.6,-0.9 -0.7,-0.7 -0.9,-0.6 -1,-0.3 -1,-0.1 m 2.1,5.9 0.1,-0.3 0.1,-0.3 0.1,-0.3 0,-0.4 0,-0.3 -0.1,-0.3 -0.1,-0.3 -0.1,-0.3 m 0,0 0,0 0,0.1 0,0.1 0,0.1 0,0.1 m 0,0 -0.2,0.3 -0.1,0.4 0,0.4 0.1,0.3 0.2,0.3 m 0,0 0,0 0,0.1 0,0.2 0,0.1 m 0,-119.1 0,0 -0.1,0.1 -0.1,0.1 -0.1,0 m 0,0 -0.4,0 -0.4,0.1 -0.3,0.2 -0.3,0.3 -0.1,0.2 m 0,0 -0.1,0.1 0,0.1 -0.2,0 m 0,0 0.3,0 0.3,-0.1 0.3,-0.1 0.3,-0.1 0.3,-0.2 0.2,-0.2 0.2,-0.2 0.2,-0.3 m -2.1,-3.7 0,0 0.1,0.1 0.1,0 0.1,0.1 m 0,0 0.2,0.3 0.3,0.3 0.3,0.2 0.3,0.1 0.4,0 m 0,0 0,0 0.1,0 0.1,0.1 0.1,0.1 m 0,0 -0.2,-0.3 -0.2,-0.2 -0.2,-0.3 -0.3,-0.1 -0.3,-0.2 -0.3,-0.1 -0.3,0 -0.3,-0.1 m -0.3,0.2 0,0 0.1,-0.1 0.1,-0.1 0.1,0 m 0,0 -0.4,0.1 -0.3,0 -0.3,0.1 -0.3,0.2 -0.2,0.1 -0.3,0.3 -0.2,0.2 -0.2,0.3 m 0,0 0.1,0 0,-0.1 0.1,-0.1 0.1,0 0.1,0 m 0,0 0.4,0 0.3,-0.1 0.3,-0.2 0.3,-0.3 0.2,-0.3 m -1.5,3.7 -0.1,0 -0.1,-0.1 -0.1,0 -0.1,-0.1 m 0,0 0.2,0.3 0.2,0.2 0.3,0.2 0.2,0.2 0.3,0.1 0.3,0.1 0.3,0.1 0.4,0 m 0,0 -0.1,0 -0.1,0 -0.1,-0.1 0,-0.1 m 0,0 -0.2,-0.3 -0.3,-0.2 -0.4,-0.2 -0.3,-0.1 -0.3,0 m 3.9,-2.6 0,0 0,0.1 0,0.1 0,0.1 m 0,0 -0.2,0.4 -0.1,0.3 0,0.4 0.1,0.3 0.2,0.3 m 0,0 0,0.1 0,0.1 0,0.1 0,0.1 m 0,0 0.1,-0.3 0.1,-0.3 0.1,-0.3 0,-0.3 0,-0.3 -0.1,-0.3 -0.1,-0.4 -0.1,-0.2 m -4.2,0.3 -0.1,0 0,-0.1 0,-0.1 0,-0.1 m 0,0 -0.1,0.2 -0.1,0.4 -0.1,0.3 0,0.3 0,0.3 0.1,0.3 0.1,0.3 0.1,0.3 m 0,0 0,0 0,-0.1 0,-0.1 0,-0.1 0.1,-0.1 m 0,0 0.1,-0.3 0.1,-0.4 0,-0.3 -0.1,-0.4 -0.1,-0.3 m 2.1,-3.8 -1.1,0.1 -1,0.4 -0.9,0.5 -0.7,0.8 -0.5,0.9 -0.4,0.9 -0.1,1.1 0.1,1 0.4,1 0.5,0.9 0.7,0.7 0.9,0.6 1,0.3 1.1,0.2 1,-0.2 1,-0.3 0.9,-0.6 0.7,-0.7 0.6,-0.9 0.3,-1 0.1,-1 -0.1,-1.1 -0.3,-0.9 -0.6,-0.9 -0.7,-0.8 -0.9,-0.5 -1,-0.4 -1,-0.1 m 31.7,41 0,0 m 1.7,-2 0,0.8 m -1.7,-0.8 1.7,0 m -1.7,2 0,-2 m 1.7,5.1 -1.7,0 m 1.7,-0.9 0,0.9 m -1.7,-2.1 0,0 m 0,2.1 0,-2.1 m -4.2,1.2 1.7,0 m 0,0 0,-3.4 m -1.7,0 1.7,0 m -1.7,3.4 0,-3.4 m 30.3,-20.4 3.4,0 m -3.4,1.7 3.4,0 m 0,-1.7 0,1.7 m -3.4,-1.7 0,1.7 m 34.9,30.6 1.7,0 m 0,0 0,-3.4 m -1.7,0 1.7,0 m -1.7,3.4 0,-3.4 m -8.5,3.4 1.7,0 m 0,0 0,-3.4 m -1.7,0 1.7,0 m -1.7,3.4 0,-3.4 m 4.2,0 1.7,0 m -1.7,3.4 0,-3.4 m 0,3.4 1.7,0 m 0,0 0,-3.4 m 17.6,71.5 -0.4,-0.4 m 1,0.1 -0.3,-0.2 -0.2,0 -0.3,0 -0.2,0.1 m 1,0.1 -0.5,0.4 m 0,0 0,0 -0.1,0 0,-0.1 m -0.4,-0.4 0.4,0.5 m 0.1,0 0.5,-0.4 m 1.5,-1.4 -1.5,1.4 m -3,-2.7 1.5,1.7 m 0.2,-3.2 -1.7,1.5 m 3.2,0.2 -1.5,-1.7 m -0.2,3.2 1.7,-1.5 m 1.3,1.1 -2,1.8 m -1.6,-6 3.6,4 m -5.8,-2.3 1.6,-1.3 m -1.6,1.5 0,0 0,-0.1 0,-0.1 m 3.7,4.2 -3.7,-4 m 5.8,2.1 0,0.1 0,0.1 m -3.3,-3.8 -0.3,-0.4 m -0.2,0 0,0 0.1,0 m -0.1,0 -0.4,0.4 m 0,0 0.2,0.1 0.2,0.1 0.3,0 0.2,-0.2 m -0.4,-0.4 0.4,0.4 m -48.7,22.2 0.3,0 m 2.8,0 0.3,0 m 0,0 0,2.8 m 0,0 -3.4,0 m 0,0 0,-2.8 m 7.9,2.6 -0.3,-2.8 m 3.6,2.4 -3.3,0.4 m 3,-3.2 0.3,2.8 m -3.6,-2.4 0.2,-0.1 m 2.9,-0.2 0.2,-0.1 m 8.1,1.4 -3.4,0.7 m -0.5,-2.7 0.2,-0.1 m 2.8,-0.6 0.3,0 m 0,0 0.6,2.7 m -3.4,0.7 -0.5,-2.7 m 8.2,0.9 -0.9,-2.7 m 4.1,1.6 -3.2,1.1 m 2.3,-3.8 0.9,2.7 M 20.7,162 21,161.9 m 2.7,-0.9 0.2,-0.1 m 5.1,1.1 -1.2,-2.6 m 4.3,1.2 -3.1,1.4 m 1.9,-3.9 1.2,2.5 m -4.3,-1.2 0.3,-0.1 m 2.6,-1.1 0.2,-0.1 m 5.2,0.5 -1.4,-2.4 m 4.3,0.7 -2.9,1.7 m 1.5,-4.1 1.4,2.4 m -4.3,-0.7 0.2,-0.2 m 2.5,-1.4 0.2,-0.1 m 22.2,-16.3 -2.3,-1.6 m 4.3,-1.1 -2,2.7 m -0.3,-4.4 2.3,1.7 m -4.3,1.1 0.1,-0.3 m 1.7,-2.2 0.2,-0.3 m -16.7,20.7 -1.7,-2.3 m 4.4,0.3 -2.7,2 m 1.1,-4.3 1.6,2.3 m -4.4,-0.3 0.2,-0.2 m 2.3,-1.6 0.3,-0.2 m 3.2,-2.6 0.2,-0.2 m 2.1,-1.9 0.2,-0.2 m 0,0 1.9,2.1 m 0,0 -2.5,2.3 m 0,0 -1.9,-2.1 m 5.5,-5.3 0.2,-0.2 m 1.9,-2.1 0.1,-0.2 m 0,0 2.2,1.9 m 0,0 -2.3,2.5 m 0,0 -2.1,-1.9 m -32.2,-62.1 1.7,0 m 0,0 0,-3.4 m -1.7,0 1.7,0 m -1.7,3.4 0,-3.4 m -45.4,17.6 1.8,0 m 0,0 0,-3.4 m -1.8,0 1.8,0 m -1.8,3.4 0,-3.4 m 56.5,12.5 -3.4,0 m 3.4,0 0,-1.7 m -3.4,1.7 0,-1.7 m 3.4,0 -3.4,0 M -20.7,91 -19,91 m -1.7,3.4 1.7,0 m 0,0 0,-3.4 m -1.7,3.4 0,-3.4 m 4.5,-14.4 32.4,0 m -32.4,32.3 0,-32.3 m 32.4,32.3 -32.4,0 m 32.4,-32.3 0,32.3 m -22.7,-37.2 0,-3.4 m 1.7,3.4 0,-3.4 m -1.7,0 1.7,0 m -1.7,3.4 1.7,0 m -18.7,-3.4 1.7,0 m -1.7,3.4 1.7,0 m 0,0 0,-3.4 m -1.7,3.4 0,-3.4 m 54.1,10.7 0,0 m -1.7,2.1 0,-0.9 m 1.7,0.9 -1.7,0 m 1.7,-2.1 0,2.1 m -1.7,-5.1 1.7,0 m -1.7,0.8 0,-0.8 m 1.7,2 0,0 m 0,-2 0,2 m -60.9,-7.5 0,0 m -1.7,2.1 0,-0.9 m 1.7,0.9 -1.7,0 m 1.7,-2.1 0,2.1 m -1.7,-5.1 1.7,0 m -1.7,0.8 0,-0.8 m 1.7,2 0,0 m 0,-2 0,2 m 52.4,9.5 0,2.1 m 0,0 -1.7,0 m 0,0 0,-0.9 m 1.7,-1.2 0,0 m 0,-3 0,2 m 0,0 0,0 m -1.7,-1.2 0,-0.8 m 0,0 1.7,0 m -45.3,17.2 0,0 m -1.7,2.1 0,-0.9 m 1.7,0.9 -1.7,0 m 1.7,-2.1 0,2.1 m -1.7,-5.1 1.7,0 m -1.7,0.8 0,-0.8 m 1.7,2 0,0 m 0,-2 0,2 m 53.5,9.6 2,0 m 0,0 0,1.7 m 0,0 -0.8,0 m -1.2,-1.7 0,0 m -3.1,1.7 0,-1.7 m 0.9,1.7 -0.9,0 m 2,-1.7 0,0 m -2,0 2,0 m -35.7,-45.1 0,-4.5 m 1.7,4.5 -1.7,0 m 0,-4.5 1.7,0 m 11.3,4.5 -1.7,0 m 1.7,-4.5 0,4.5 m -1.7,-4.5 1.7,0 m -11.3,18.3 0,2.1 m 0,0 -1.7,0 m 0,0 0,-0.9 m 1.7,-1.2 0,0 m -1.7,-3 1.7,0 m -1.7,0.8 0,-0.8 m 1.7,2 0,0 m 0,-2 0,2 m -17,1 0,2.1 m 0,0 -1.7,0 m 0,0 0,-0.9 m 1.7,-1.2 0,0 m -1.7,-3 1.7,0 m -1.7,0.8 0,-0.8 m 1.7,2 0,0 m 0,-2 0,2 m 56.7,9.5 0,2.1 m 0,0 -1.7,0 m 0,0 0,-0.9 m 1.7,-1.2 0,0 m -1.7,-3 1.7,0 m -1.7,0.8 0,-0.8 m 1.7,2 0,0 m 0,-2 0,2 m -8.5,1 0,0 m -1.7,2.1 0,-0.9 m 1.7,0.9 -1.7,0 m 1.7,-2.1 0,2.1 m -1.7,-5.1 1.7,0 m -1.7,0.8 0,-0.8 m 1.7,2 0,0 m 0,-2 0,2 m -26.9,-28.4 0,0 m -2.1,-1.7 0.9,0 m -0.9,1.7 0,-1.7 m 2.1,1.7 -2.1,0 m 5.1,-1.7 0,1.7 m -0.8,-1.7 0.8,0 m -2,1.7 0,0 m 2,0 -2,0 m -19.5,43.6 0,0 m -1.7,2.1 0,-0.9 m 1.7,0.9 -1.7,0 m 1.7,-2.1 0,2.1 m 0,-5.1 0,2 m 0,0 0,0 m -1.7,-1.2 0,-0.8 m 0,0 1.7,0 m -12.5,6.8 0,-2.9 m 3.4,2.9 -3.4,0 m 3.4,-2.9 0,2.9 m -3.4,-2.9 0.3,0 m 2.8,0 0.3,0 m -3.4,-5.6 3.4,0 m 0,0 0,2.8 m 0,0 -0.3,0 m -2.8,0 -0.3,0 m 0,0 0,-2.8 M 34,110 l -2.8,0 m 2.8,-3.4 0,3.4 m -2.8,-3.4 2.8,0 m -2.8,3.4 0,-0.3 m 0,-2.8 0,-0.3 m -2.9,3.4 -2.8,0 m 2.8,-3.4 0,0.3 m 0,2.8 0,0.3 m -2.8,-3.4 2.8,0 m -2.8,3.4 0,-3.4 m -5.1,-40 -5.7,0 m 5.7,-7.3 0,0.1 m 0,7.1 0,0.1 m -5.7,0 0,-7.3 m 0,0 5.7,0 m 10.2,0 0,7.3 m 0,0 -5.7,0 m 0,0 0,-0.1 m 0,-7.1 0,-0.1 m 0,0 5.7,0 m -61.8,36.2 2.8,0 m 0,0 0,-5.6 m -2.8,0 2.8,0 m -2.8,5.6 0,-5.6 m 58.1,19.8 0,-2.8 m 5.7,2.8 -5.7,0 m 5.7,0 0,-2.8 m 0,0 -5.7,0 m 44,10.6 -2.7,-0.8 m 3.8,-2.4 -1.1,3.2 m -1.6,-4.1 2.7,0.9 m -3.8,2.4 0.1,-0.3 m 0.9,-2.7 0.1,-0.3 m -3.8,2.4 -2.7,-0.9 m 3.8,-2.3 -0.1,0.2 m -0.9,2.7 -0.1,0.3 m -1.6,-4.1 2.7,0.9 m -3.8,2.3 1.1,-3.2 m 9.2,-1.7 -2.8,-0.6 m 3.5,-2.7 -0.7,3.3 m -2,-3.9 2.7,0.6 m -3.5,2.7 0.1,-0.3 m 0.6,-2.7 0.1,-0.3 m -3.5,2.7 -2.8,-0.6 m 3.5,-2.7 -0.1,0.3 m -0.6,2.7 0,0.3 m -2.1,-3.9 2.8,0.6 m -3.5,2.7 0.7,-3.3 m 9,-2.6 -2.8,-0.3 m 3.2,-3.1 -0.4,3.4 m -2.4,-3.7 2.8,0.3 m -3.2,3.1 0,-0.3 m 0.3,-2.8 0.1,-0.3 m -6,2.8 0.3,-3.4 m 0,0 2.8,0.3 m 0,0 0,0.3 m -0.3,2.8 0,0.3 m 0,0 -2.8,-0.3 m 6.2,-7 0,-0.3 m 0,-2.8 0,-0.3 m 0,0 2.8,0 m 0,0 0,3.4 m 0,0 -2.8,0 m -2.9,0 -2.8,0 m 2.8,-3.4 0,0.3 m 0,2.8 0,0.3 m -2.8,-3.4 2.8,0 m -2.8,3.4 0,-3.4 m 8.3,-4.4 -2.8,0.2 m 2.4,-3.6 0.4,3.4 m -3.2,-3.1 2.8,-0.3 M 72.1,86.8 72,86.6 m -0.3,-2.9 0,-0.2 m -2.5,3.6 -2.8,0.3 m 2.5,-3.6 0,0.2 m 0.3,2.9 0,0.2 m -3.1,-3 2.8,-0.3 m -2.5,3.6 -0.3,-3.3 m 7.7,-5.3 -2.7,0.5 m 2,-3.9 0.7,3.4 M 70.3,76 73.1,75.4 m -2,3.9 L 71,79.1 M 70.4,76.3 70.3,76 m -2,3.9 -2.8,0.6 m 2.1,-3.9 0,0.3 m 0.6,2.8 0.1,0.2 m -3.5,-2.7 2.8,-0.6 m -2.1,3.9 -0.7,-3.3 M 1.7,17.6 l 0,2.8 m -3.4,-2.8 3.4,0 m -3.4,2.8 0,-2.8 m 3.4,2.8 -0.3,0 m -2.8,0 -0.3,0 m 3.4,2.9 0,2.8 m -3.4,-2.8 0.3,0 m 2.8,0 0.3,0 m -3.4,2.8 0,-2.8 m 3.4,2.8 -3.4,0 m -4.5,-8.3 0.3,2.8 m -3.6,-2.4 3.3,-0.4 M -9.3,21 -9.5,18.2 m 3.6,2.4 -0.3,0.1 M -9,21 -9.3,21 m 3.7,2.5 0.3,2.8 m -3.7,-2.5 0.3,0 m 2.8,-0.3 0.3,0 M -8.7,26.6 -9,23.8 m 3.7,2.5 -3.4,0.3 m -5.3,-7.7 0.6,2.8 m -3.9,-2.1 3.3,-0.7 m -2.7,3.5 -0.6,-2.8 m 3.9,2.1 -0.2,0 m -2.8,0.6 -0.3,0.1 m 3.9,2 0.6,2.8 m -3.9,-2.1 0.3,0 m 2.7,-0.6 0.3,-0.1 m -2.7,3.5 -0.6,-2.8 m 3.9,2.1 -3.3,0.7 m -6.1,-7.2 0.9,2.7 m 0,0 -0.3,0.1 m -2.7,0.9 -0.3,0.1 m 0,0 -0.8,-2.7 m 0,0 3.2,-1.1 m 1.8,5.4 0.8,2.7 m -4.1,-1.6 0.3,-0.1 m 2.7,-0.9 0.3,-0.1 m -2.4,3.8 -0.9,-2.7 m 4.1,1.6 -3.2,1.1 m -6.8,-6.5 1.1,2.6 m -4.2,-1.2 3.1,-1.4 m -2,4 -1.1,-2.6 m 4.2,1.2 -0.2,0.1 m -2.6,1.2 -0.3,0.1 m 5.5,3.8 -3.2,1.3 m 0,0 -1.1,-2.5 m 0,0 0.3,-0.2 m 2.5,-1.1 0.3,-0.1 m 0,0 1.2,2.6 m -13.5,-2.7 2.9,-1.7 m 1.4,2.5 -0.2,0.1 m -2.5,1.4 -0.2,0.2 m 0,0 -1.4,-2.5 m 2.9,-1.7 1.4,2.5 m 1.4,2.4 1.5,2.5 m -4.4,-0.8 0.2,-0.1 m 2.5,-1.4 0.2,-0.2 m -1.5,4.2 -1.4,-2.5 m 4.4,0.8 -3,1.7 m -25,11.3 2.3,1.6 m -4.3,1.1 2,-2.7 m 0.3,4.4 -2.3,-1.7 m 4.3,-1.1 -0.2,0.3 m -1.6,2.3 -0.2,0.2 m 4.3,-1.1 2.3,1.7 m -4.3,1.1 0.2,-0.3 m 1.6,-2.3 0.2,-0.2 m 0.3,4.4 -2.3,-1.6 m 4.3,-1.1 -2,2.7 m -9.3,-1.2 2.4,1.4 m -4.1,1.5 1.7,-2.9 m 0.7,4.3 -2.4,-1.4 m 4.1,-1.5 -0.1,0.2 m -1.4,2.5 -0.2,0.2 m 4.2,-1.5 2.5,1.4 m -4.2,1.6 0.1,-0.3 m 1.5,-2.4 0.1,-0.3 m 0.8,4.4 -2.5,-1.4 m 4.2,-1.6 -1.7,3 m -9.4,-0.3 2.6,1.2 m -4,1.9 1.4,-3.1 m 1.2,4.3 -2.6,-1.2 m 4,-1.9 -0.2,0.2 m -1.1,2.6 -0.1,0.3 m 3.9,-2 2.6,1.2 m -3.9,1.9 0.1,-0.2 m 1.1,-2.6 0.1,-0.3 m 1.2,4.3 -2.5,-1.2 m 3.9,-1.9 -1.4,3.1 m -9.3,0.7 2.7,0.9 m -3.8,2.3 1.1,-3.2 m 1.6,4.1 -2.7,-0.9 m 3.8,-2.3 -0.1,0.2 m -0.9,2.7 -0.1,0.3 m 6.5,-1.5 -1.1,3.2 m 0,0 -2.7,-0.8 m 0,0 0.1,-0.3 m 0.9,-2.7 0.1,-0.3 m 0,0 2.7,0.9 m -10.3,4.9 2.7,0.6 m -3.4,2.8 0.7,-3.4 m 2,3.9 -2.7,-0.5 m 3.4,-2.8 0,0.3 m -0.6,2.8 -0.1,0.2 m 3.5,-2.7 2.8,0.6 m -3.5,2.7 0.1,-0.2 m 0.6,-2.8 0,-0.3 m 2.1,3.9 -2.8,-0.6 m 3.5,-2.7 -0.7,3.3 m -9,2.7 2.8,0.3 m -3.2,3.1 0.4,-3.4 m 2.4,3.6 -2.8,-0.2 m 3.2,-3.1 0,0.2 m -0.3,2.9 -0.1,0.2 m 3.2,-3 2.8,0.3 m -3.2,3 0.1,-0.2 m 0.3,-2.9 0,-0.2 m 2.5,3.6 -2.9,-0.3 m 3.2,-3 -0.3,3.3 m 41.6,76.2 0.8,-2.7 m 2.4,3.8 -3.2,-1.1 m 4.1,-1.6 -0.9,2.7 m -2.4,-3.8 0.3,0.1 m 2.7,0.9 0.3,0.1 m -2.4,-3.8 0.9,-2.7 m 2.4,3.8 -0.3,-0.1 m -2.7,-0.9 -0.3,-0.1 m 4.1,-1.6 -0.8,2.7 m -2.4,-3.8 3.2,1.1 m 1.7,9.2 0.6,-2.7 m 2.7,3.4 -3.3,-0.7 m 3.9,-2 -0.6,2.7 m -2.7,-3.4 0.3,0 m 2.8,0.6 0.2,0.1 m -2.7,-3.5 0.6,-2.8 m 2.7,3.5 -0.3,-0.1 m -2.7,-0.6 -0.3,0 m 3.9,-2.1 -0.6,2.8 m -2.7,-3.5 3.3,0.7 m 2.7,9 0.2,-2.8 m 3.1,3.2 -3.3,-0.4 m 3.6,-2.4 -0.3,2.8 m -3.1,-3.2 0.3,0.1 m 2.8,0.2 0.3,0.1 m -3.1,-3.2 0.3,-2.8 m 3.1,3.2 -0.3,-0.1 m -2.8,-0.3 -0.3,0 m 3.7,-2.5 -0.3,2.9 m -3.1,-3.2 3.4,0.3 m -66.7,-44.8 2.7,-0.9 m -1.6,4.1 -1.1,-3.2 m 3.8,2.4 -2.7,0.8 m 1.6,-4.1 0.1,0.3 m 0.9,2.7 0.1,0.3 m 1.6,-4.1 2.7,-0.9 m -1.6,4.1 -0.1,-0.3 m -0.9,-2.7 -0.1,-0.2 m 3.8,2.3 -2.7,0.9 m 1.6,-4.1 1.1,3.2 m -6.5,6.8 2.6,-1.1 m -1.2,4.2 -1.4,-3.1 m 4,2 -2.6,1.1 m 1.2,-4.2 0.1,0.2 m 1.1,2.6 0.2,0.3 m 1.2,-4.3 2.5,-1.1 m -1.2,4.2 -0.1,-0.2 m -1.1,-2.6 -0.1,-0.3 m 3.9,2 -2.6,1.1 m 1.2,-4.2 1.4,3.1 m -5.7,7.4 2.4,-1.4 m -0.7,4.3 -1.7,-2.9 m 4.1,1.5 -2.4,1.4 m 0.7,-4.3 0.2,0.2 m 1.4,2.5 0.1,0.2 m 0.8,-4.3 2.5,-1.5 m -0.8,4.4 -0.1,-0.2 m -1.5,-2.5 -0.1,-0.2 m 4.2,1.5 -2.5,1.4 m 0.8,-4.4 1.7,3 M 72,71.1 69.3,72 m 1.6,-4.1 1.1,3.2 m -3.8,-2.3 2.7,-0.9 M 69.3,72 69.2,71.7 M 68.3,69 68.2,68.8 m -1.6,4.1 -2.7,0.8 m 1.6,-4.1 0.1,0.3 m 0.9,2.7 0.1,0.3 m -3.8,-2.4 2.7,-0.9 m -1.6,4.1 -1.1,-3.2 m 6.5,-6.8 -2.6,1.2 m 1.2,-4.3 1.4,3.1 m -4,-1.9 2.6,-1.2 m -1.2,4.3 -0.1,-0.3 M 65.5,62 65.3,61.8 m -1.2,4.2 -2.6,1.2 m 1.2,-4.3 0.2,0.3 m 1.1,2.6 0.1,0.2 m -3.9,-1.9 2.5,-1.2 m -1.2,4.3 -1.3,-3.1 m 5.7,-7.5 -2.5,1.4 m 0.8,-4.3 1.7,2.9 m -4.2,-1.5 2.5,-1.4 M 63.4,58 63.3,57.8 m -1.4,-2.5 -0.2,-0.2 m -0.7,4.4 -2.5,1.4 m 0.8,-4.4 0.1,0.3 m 1.4,2.4 0.2,0.3 m -4.2,-1.6 2.5,-1.4 m -0.8,4.4 -1.7,-3 m 5,-8 -2.3,1.7 m 0.3,-4.4 2,2.7 m -4.3,-1.1 2.3,-1.6 m -0.3,4.4 -0.2,-0.2 m -1.7,-2.3 -0.1,-0.3 m -2.6,6.1 -2,-2.7 m 0,0 2.3,-1.7 m 0,0 0.1,0.2 m 1.7,2.3 0.2,0.3 m 0,0 -2.3,1.6 M 57,43.7 54.8,45.6 m -0.1,-4.4 2.3,2.5 m -4.4,-0.6 2.1,-1.9 m 0.1,4.4 -0.1,-0.2 m -1.9,-2.1 -0.2,-0.2 m 0.1,4.4 -2.1,1.9 m -0.1,-4.4 0.2,0.2 m 1.9,2.1 0.1,0.2 M 48.4,46.9 50.5,45 m 0.1,4.4 -2.2,-2.5 M 51.5,38 49.6,40.1 M 49,35.8 51.5,38 M 47.1,37.9 49,35.8 m 0.6,4.3 -0.2,-0.2 M 47.3,38 47.1,37.9 m 0.6,4.3 -1.9,2.1 m -0.6,-4.3 0.2,0.2 m 2.1,1.8 0.2,0.2 M 43.3,42.1 45.2,40 m 0.6,4.3 -2.5,-2.2 m 20.9,89.6 -2.5,-1.4 m 4.2,-1.5 -1.7,2.9 m -0.8,-4.3 2.5,1.4 m -4.2,1.5 0.2,-0.2 m 1.4,-2.5 0.1,-0.2 m -4.1,1.5 -2.5,-1.4 m 4.2,-1.5 -0.2,0.2 m -1.4,2.5 -0.1,0.2 m -0.8,-4.4 2.5,1.5 m -4.2,1.5 1.7,-3 m 9.4,0.3 -2.6,-1.1 m 4,-2 -1.4,3.1 m -1.2,-4.2 2.6,1.1 m -4,2 0.2,-0.3 m 1.1,-2.6 0.1,-0.2 m -4,1.9 -2.5,-1.1 m 3.9,-2 -0.1,0.3 m -1.1,2.6 -0.2,0.2 m -1.2,-4.2 2.6,1.1 m -3.9,2 1.3,-3.1 m -16,-85.4 -1.6,2.3 m -1.1,-4.3 2.7,2 m -4.4,0.3 1.7,-2.3 m 1.1,4.3 -0.3,-0.1 m -2.3,-1.7 -0.2,-0.2 m 1.1,4.3 -1.7,2.3 m -1.1,-4.3 0.3,0.2 m 2.3,1.7 0.2,0.1 m -4.4,0.3 1.6,-2.3 m 1.1,4.3 -2.7,-2 m -1.7,-11 2.9,1.7 M 37.6,31 37.4,30.8 m -2.5,-1.4 -0.2,-0.1 m 0,0 1.4,-2.5 M 39,28.5 37.6,31 m -1.4,2.4 -1.4,2.5 m -1.6,-4.2 0.3,0.2 m 2.4,1.4 0.3,0.1 m -4.4,0.8 1.4,-2.5 m 1.6,4.2 -3,-1.7 m 0.3,-9.4 -1.2,2.6 m -1.9,-4 3.1,1.4 M 27.8,26 29,23.4 m 1.9,4 -0.2,-0.1 M 28.1,26.1 27.8,26 m 0.8,6.5 -3.1,-1.3 m 0,0 1.2,-2.6 m 0,0 0.2,0.1 m 2.6,1.1 0.3,0.2 m 0,0 -1.2,2.5 m -3.8,-10.7 -0.9,2.7 m -2.3,-3.8 3.2,1.1 m -4.1,1.6 0.9,-2.7 m 2.3,3.8 -0.2,-0.1 M 21,23.5 20.7,23.4 m 2.4,3.8 -0.9,2.7 m -2.4,-3.8 0.3,0.1 m 2.7,0.9 0.3,0.1 m -4.1,1.6 0.8,-2.7 m 2.4,3.8 -3.2,-1.1 m -1.7,-9.2 -0.6,2.8 m -2.8,-3.5 3.4,0.7 m -3.9,2.1 0.5,-2.8 m 2.8,3.5 -0.3,-0.1 m -2.8,-0.6 -0.2,0 m 2.7,3.4 -0.6,2.8 m -2.7,-3.5 0.2,0.1 m 2.8,0.6 0.3,0 m -3.9,2.1 0.6,-2.8 m 2.7,3.5 -3.3,-0.7 M 9.5,18.2 9.2,21 m -3,-3.2 3.3,0.4 M 5.9,20.6 6.2,17.8 M 9.2,21 9,21 M 6.1,20.7 5.9,20.6 m 3,3.2 -0.3,2.8 m -3,-3.1 0.2,0 m 2.9,0.3 0.2,0 m -3.6,2.5 0.3,-2.8 m 3,3.1 -3.3,-0.3 m -80.4,64.7 2.8,0 m -2.8,3.4 0,-3.4 m 2.8,3.4 -2.8,0 m 2.8,-3.4 0,0.3 m 0,2.8 0,0.3 m 5.7,-3.4 0,3.4 m 0,0 -2.9,0 m 0,0 0,-0.3 m 0,-2.8 0,-0.3 m 0,0 2.9,0 m -8.3,7.9 2.8,-0.3 m -2.4,3.7 -0.4,-3.4 m 3.2,3.1 -2.8,0.3 m 2.4,-3.7 0.1,0.3 m 0.3,2.8 0,0.3 m 2.4,-3.7 2.9,-0.3 m -2.5,3.7 0,-0.3 m -0.3,-2.8 -0.1,-0.3 m 3.2,3.1 -2.8,0.3 m 2.5,-3.7 0.3,3.4 m -7.7,5.3 2.7,-0.6 m -2,3.9 -0.7,-3.3 m 3.4,2.7 -2.7,0.6 m 2,-3.9 0.1,0.3 m 0.6,2.7 0,0.3 m 2.1,-3.9 2.8,-0.6 m -2.1,3.9 0,-0.3 m -0.6,-2.7 -0.1,-0.3 m 3.5,2.7 -2.8,0.6 m 2.1,-3.9 0.7,3.3 m 22,-77.3 1.7,2.3 m -4.4,-0.3 2.7,-2 m -1.1,4.3 -1.6,-2.3 m 4.4,0.3 -0.2,0.2 m -2.3,1.7 -0.3,0.1 m 4.4,0.3 1.7,2.3 m -4.4,-0.3 0.2,-0.1 m 2.3,-1.7 0.2,-0.2 m -1,4.3 -1.7,-2.3 m 4.4,0.3 -2.7,2 m -8.5,-4 1.9,2.1 m -4.4,0.1 2.5,-2.2 m -0.6,4.3 -1.9,-2.1 m 4.4,-0.1 -0.2,0.1 m -2.1,1.9 -0.2,0.2 m 4.4,-0.1 1.9,2.1 m -4.4,0.1 0.2,-0.2 m 2.1,-1.8 0.2,-0.2 m -0.6,4.3 -1.9,-2.1 m 4.4,-0.1 -2.5,2.2 m -8.9,-3.1 2.1,1.9 m -4.4,0.6 2.3,-2.5 m -0.2,4.4 -2.1,-1.9 m 4.4,-0.6 -0.2,0.2 m -1.9,2.1 -0.2,0.2 m 4.4,-0.6 2.1,1.9 m -4.4,0.6 0.2,-0.2 m 1.9,-2.1 0.2,-0.2 m -0.1,4.4 -2.2,-1.9 m 4.4,-0.6 -2.2,2.5 m -8.9,84.4 0.2,0.3 m 1.6,2.2 0.2,0.3 m 0,0 -2.3,1.6 m 0,0 -2,-2.7 m 0,0 2.3,-1.7 m 2.3,-1.6 2.3,-1.7 m -0.3,4.4 -0.2,-0.2 m -1.6,-2.3 -0.2,-0.2 m 4.3,1 -2.3,1.7 m 0.3,-4.4 2,2.7 m -4.1,8.5 2.1,-1.9 m 0.2,4.4 -2.3,-2.5 m 4.4,0.6 -2.1,1.9 m -0.2,-4.4 0.2,0.2 m 1.9,2.1 0.2,0.2 m 2,-6.3 2.2,2.5 m 0,0 -2.1,1.9 m 0,0 -0.2,-0.2 m -1.9,-2.1 -0.2,-0.2 m 0,0 2.2,-1.9 m -0.9,11.4 1.9,-2.1 m 0.6,4.4 -2.5,-2.3 m 4.4,0.2 -1.9,2.1 m -0.6,-4.4 0.2,0.2 m 2.1,1.9 0.2,0.2 m -0.6,-4.4 1.9,-2.1 m 0.6,4.4 -0.2,-0.2 m -2.1,-1.9 -0.2,-0.2 m 4.4,0.2 -1.9,2.1 m -0.6,-4.4 2.5,2.3 m -2.2,9.1 1.6,-2.3 m 1.1,4.3 -2.7,-2 m 4.4,-0.3 -1.7,2.3 m -1.1,-4.3 0.3,0.2 m 2.3,1.6 0.2,0.2 m 0.6,-6.6 2.7,2 m 0,0 -1.7,2.3 m 0,0 -0.2,-0.2 m -2.3,-1.6 -0.2,-0.2 m 0,0 1.7,-2.3 m 1.5,11.3 1.4,-2.4 m 1.5,4.1 -2.9,-1.7 m 4.3,-0.7 -1.4,2.4 m -1.5,-4.1 0.2,0.1 m 2.5,1.4 0.2,0.2 m -0.1,-6.6 3,1.7 m 0,0 -1.5,2.4 m 0,0 -0.2,-0.1 m -2.5,-1.5 -0.2,-0.1 m 0,0 1.4,-2.4 m 2.7,11 1.1,-2.5 m 2,3.9 -3.1,-1.4 m 4.2,-1.2 -1.1,2.6 m -2,-3.9 0.3,0.1 m 2.6,1.1 0.2,0.1 m -1.9,-3.9 1.1,-2.6 m 2,3.9 -0.3,-0.1 m -2.5,-1.1 -0.3,-0.1 m 4.3,-1.2 -1.2,2.5 m -2,-3.9 3.2,1.4 m 81.1,-109.9 0.1,0 0,0.1 -0.1,0 m -0.3,-0.6 0.3,0.5 m -0.3,-0.5 -0.2,0.3 -0.1,0.2 0.1,0.3 0.1,0.2 m 0.4,-0.4 -0.4,0.4 m 0,0 0.4,-0.4 m 0,0 0.1,0 0,-0.1 -0.1,0 m -4.5,0.8 1.5,1.7 m 0.1,-3.2 -1.6,1.5 m 3.2,0.2 -1.6,-1.7 m -0.1,3.2 1.7,-1.5 m -0.4,-3 1.7,2 m -4.2,3.8 -1.3,-1.5 m -0.4,-0.6 4,-3.7 m -2.1,5.8 0,0 -0.1,0 -0.1,0 m 4.2,-3.7 -4,3.7 m 4,-3.8 0.1,0 0,0.1 -0.1,0 m -5.9,1.7 0,0 0,-0.1 m 4,-3.7 0.1,0 0.1,0 m -3.8,3.3 -0.4,0.4 m 0,0.1 0,0 0,-0.1 m 0,0.1 0.4,0.4 m 0,0 0.1,-0.2 0.1,-0.2 -0.1,-0.3 -0.1,-0.2 m -0.4,0.4 0.4,-0.4 m -119.8,23 0,0 0.1,-0.1 m -0.3,0.6 0.2,-0.5 m -0.2,0.5 0.3,0.1 0.2,-0.1 0.3,-0.2 0.1,-0.2 m -0.6,-0.2 0.6,0.2 m -0.7,-0.1 -0.2,0.5 m 5.6,1.3 -0.6,1.9 m -1.8,-0.2 0.7,-2.1 m -2.8,1.4 2.1,0.7 m 0.7,-2.1 -2.1,-0.7 m 0,0 -0.7,2.1 m -1.6,-0.2 0,0 -0.1,0 0,-0.1 m 0,0 0.8,-2.5 m 4.4,4.3 -5.1,-1.7 m 5.3,1.6 0,0 0,0.1 -0.1,0 -0.1,0 m 1,-2.6 -0.6,2 m 0.5,-2.1 0,0 0.1,0 0,0.1 m -5.3,-1.8 5.2,1.7 m -5.3,-1.6 0,0 0,-0.1 0.1,0 m 4.5,4.3 0,0.1 -0.1,0 -0.1,0 m 0.2,-0.1 0.2,-0.5 m 0,0 -0.3,0 -0.3,0 -0.2,0.2 -0.1,0.2 m 0.5,0.2 -0.5,-0.2 m 23.7,-40.5 0.3,0.5 m -0.9,-0.1 0.2,0.1 0.2,0.1 0.3,0 0.2,-0.1 m -0.9,-0.1 0.4,-0.4 m 0,0 0.1,0 0.1,0 m 0.3,0.5 -0.3,-0.5 m 0,0 0,0 -0.1,0 -0.1,0 m -2.1,1.5 2.1,-1.5 m 2.2,3.3 -1.3,-1.8 m 0,0 -1.8,1.3 m 0,0 1.3,1.9 m 0,0 1.8,-1.4 m -4.3,-1.7 2.1,-1.6 m -2.1,1.7 0,0 0,-0.1 m 3.2,4.5 -3.2,-4.4 m 5.5,2.9 -1.7,1.2 m 1.7,-1.4 0,0.1 0,0.1 m -3.2,-4.5 3.2,4.3 m -2.6,1.3 0.3,0.4 m 111.6,32.9 -0.5,0.2 m 0.4,-0.9 -0.2,0.2 -0.2,0.2 -0.1,0.2 0.1,0.3 m 0.4,-0.9 0.2,0.6 m 0,0 0,0 0,0.1 -0.1,0 m 0.1,-0.1 -0.2,-0.6 m 0.1,0.7 0.1,0 0,-0.1 M 65.1,72.9 64.5,71 m 4.3,0.5 -0.7,-2.1 m -2.1,0.7 0.7,2.1 m 0,0 2.1,-0.7 M 68.1,69.4 66,70.1 m -1.6,0.2 5.1,-1.7 M 65.1,72.9 64.5,71 m 5.2,-2.3 0.8,2.5 m -1,-2.6 0.1,0 0.1,0.1 m -5.4,1.7 0,0 0,-0.1 0.1,0 m 0.8,2.7 0,0 -0.1,0 0,-0.1 m 5.3,-1.6 -5.2,1.7 m 5.3,-1.8 0,0 0,0.1 -0.1,0 m -6,-1 -0.1,0 0,0.1 0,0.1 m 0,-0.1 0,0 0,-0.1 0.1,0 m -0.1,0.1 0.2,0.6 m 0,0 0.2,-0.1 0.2,-0.2 0,-0.3 0,-0.3 m -0.5,0.2 0.5,-0.2 m -120.5,71 -0.1,-0.1 0,-0.1 0.1,0 m 0.3,0.6 -0.3,-0.4 m 0.3,0.4 0.2,-0.2 0.1,-0.3 -0.1,-0.3 -0.1,-0.2 m -0.4,0.4 0.4,-0.4 m 0,0 -0.4,0.4 m 0,0 -0.1,0 0,0.1 0,0.1 m 4.6,-0.9 -1.5,-1.7 m -0.2,3.2 1.7,-1.5 m -3.2,-0.2 1.5,1.7 m 0.2,-3.2 -1.7,1.5 m 2.9,-2.7 1.3,1.5 m -3.8,4.2 -1.7,-1.9 m 5.9,-1.7 -4,3.6 m 0,0 -0.1,0 -0.1,0 m 4.2,-3.8 0,0 0,0.1 0,0.1 m -1.9,-2.1 0,-0.1 0.1,0 0.1,0.1 m -4.2,3.6 4,-3.6 m -4,3.8 -0.1,-0.1 0,-0.1 0.1,0 m 5.5,-1.1 0.4,-0.4 m 0,0 -0.4,0.3 m 0,-0.9 -0.1,0.2 -0.1,0.3 0,0.2 0.2,0.2 m 0.4,-0.5 -0.4,-0.4 m 0.4,0.4 0,0 0,0.1 0,0.1 m -9.2,-91.1 0.1,0 0.1,0 m -0.5,0.5 0.3,-0.5 m -0.3,0.5 0.2,0.1 0.3,0 0.3,-0.1 0.2,-0.2 m -0.5,-0.3 0.5,0.3 m 0,0 -0.5,-0.3 m 0,0 0,0 -0.1,0 -0.1,0 m 1.8,4.3 1.3,-1.8 m 0,0 -1.8,-1.3 m 0,0 -1.3,1.8 m 0,0 1.8,1.3 m -3.3,-2.2 1.5,-2.1 m 2.9,5.5 -4.4,-3.2 m 6.1,1.1 -1.2,1.6 m -3.2,-5 4.4,3.2 m 0,0 0,0 0,0.1 0,0.1 m -6.1,-1.1 0,0 0,-0.1 0,-0.1 m 4,3.1 0.4,0.3 m 0,0 0.1,0 0.1,0 m -0.2,0 -0.4,-0.3 m 0.9,-0.2 -0.2,-0.1 -0.3,0 -0.2,0.1 -0.2,0.2 m 0.6,0.3 0.3,-0.5 m -0.3,0.5 0,0 -0.1,0 -0.1,0 m 2.3,-11.4 0.4,0.4 m -1,0 0.2,0.2 0.3,0 0.3,0 0.2,-0.2 m -1,0 0.4,-0.4 m 0,0 0,0 0.1,0 0.1,0 m 0.4,0.4 -0.4,-0.4 m 0.4,0.4 0,0 m -0.6,-0.4 -0.4,0.4 m 3.2,2.4 -1.7,-1.5 m 0,0 -1.5,1.7 m 0,0 1.7,1.5 m 0,0 1.5,-1.7 m -4.5,-0.8 1.7,-2 m -1.7,2.1 -0.1,0 0,-0.1 0.1,0 m 4,3.8 -4,-3.7 m 5.9,1.7 -1.3,1.5 m -2.7,-5.3 4,3.7 m 0,0 0,0 0,0.1 m -1.7,2 0,0 m 0,0 0.3,-0.5 m -0.3,0.5 0,0 m 0,0 -0.1,0 -0.1,0 m 0.5,-0.5 -0.2,-0.1 -0.2,0 -0.3,0 -0.2,0.2 m 0.4,0.4 -0.4,-0.4 m 0.4,0.4 0,0 0.1,0 0.1,0 m 124.6,53.5 -0.1,0.1 -0.1,0 m 0.2,-0.7 0,0.6 m 0,-0.6 -0.3,0.1 -0.2,0.1 -0.2,0.2 0,0.3 m 0.5,0 -0.5,0 m 0,0 0.5,0 m 0,0 0.1,0 0.1,0 0,-0.1 m -4,-0.6 2.3,0.3 m 0,0 0.2,-2.3 m 0,0 -2.2,-0.2 m 0,0 -0.3,2.2 m 4.2,-2 -0.2,2.6 m -5.3,-3.3 5.4,0.6 m -5.8,2.1 0.2,-2 m -0.1,2.1 0,0 -0.1,0 0,-0.1 m 5.5,0.7 -5.4,-0.6 m 5.6,0.5 0,0 -0.1,0.1 -0.1,0 m -5.2,-3.3 0,0 0,-0.1 0.1,0 m 5.4,0.6 0,0 0.1,0 0,0.1 m -4.9,-0.6 -0.6,-0.1 m -0.1,0.1 0,0 0.1,-0.1 m -0.1,0.1 -0.1,0.6 m 0,0 0.3,0 0.2,-0.2 0.2,-0.2 0.1,-0.2 m -0.6,-0.1 0.6,0.1 m -82.6,-78.1 0.1,0 0.1,0 m -0.7,0.1 0.5,-0.1 m -0.5,0.1 0.1,0.2 0.2,0.2 0.2,0.1 0.3,0 m -0.1,-0.6 0.1,0.6 m 0,0 -0.1,-0.6 m 0.1,0.6 0,0 m -0.1,-0.6 0,0 m -0.2,-0.1 -0.5,0.2 m 0.7,1.5 -2.2,0.5 m 2.7,1.8 -0.5,-2.3 m -1.7,2.7 2.2,-0.4 m -2.7,-1.8 0.5,2.2 m -1,-3.8 2.5,-0.5 m -1.5,6 -1.1,-5.4 m 3.8,4.9 -2.5,0.5 m 1.6,-5.4 1,4.8 m -1.3,-5.4 0.1,-0.1 0,0.1 0.1,0 m 1.1,5.4 0,0 0,0.1 -0.1,0 m -2.5,0.5 0,0 -0.1,0 -0.1,0 m -1.1,-5.4 0,0 0,-0.1 0.1,0 m 1.2,5.5 0.5,-0.1 m -0.8,-0.5 0.1,0.6 M 53.7,143 53.3,142.6 m 1,0 -0.3,-0.2 -0.2,0 -0.3,0.1 -0.2,0.1 m 1,0 -0.4,0.4 m 0,0 0,0 -0.1,0 -0.1,0 m -0.4,-0.4 0,0 m 0,0 0.4,0.4 m 0.2,0 0.4,-0.4 m -1.7,-4.1 -1.5,1.7 m 3.2,-0.2 -1.7,-1.5 m 0.1,3.2 1.6,-1.7 m -3.2,0.2 1.6,1.5 m -3,-2.5 1.3,-1.5 m 4.6,3.4 -1.7,1.9 m 1.7,-2.1 0,0 0.1,0 0,0.1 -0.1,0.1 m -4,-3.8 4,3.6 m -5.9,-1.5 0,-0.1 0,-0.1 m 4,3.8 -4,-3.6 m 1.7,-2.1 -0.4,0.4 m 0.4,-0.4 0,0 m 0,0 0,0 m 0.2,0 0.4,0.3 m -1,0.1 0.3,0.1 0.2,0.1 0.3,-0.1 0.2,-0.2 m -0.6,-0.3 0.1,-0.1 0.1,0.1 m 0,-0.1 0,0 -0.1,0 -0.1,0.1 M 24,23 l 0,0 0.1,0.1 0,0.1 M 23.5,22.8 24,23 m -0.5,-0.2 -0.1,0.3 0.1,0.3 0.2,0.2 0.2,0.1 m 0.2,-0.5 -0.2,0.5 m 0,0 0.2,-0.5 m 0,0 0,-0.1 0,-0.1 -0.1,0 m -0.7,1.6 -2.1,-0.7 m 0,0 -0.7,2.1 m 0,0 2.1,0.7 m 0,0 0.7,-2.1 m -1,3.8 -2,-0.6 M 21.5,22.2 24,23 m -2.6,-0.7 0,0 0,-0.1 0.1,0 m -1.8,5.3 1.7,-5.2 m -1.6,5.3 0,0 -0.1,0 0,-0.1 m 2.7,0.8 0,0.1 -0.1,0 m 1.8,-5.2 -1.7,5.1 M 24,23 l 0,0 0.1,0.1 0,0.1 m -4.2,3.7 -0.2,0.6 m 0,0 0.2,-0.6 m 0.4,0.9 0.1,-0.3 -0.1,-0.2 -0.2,-0.2 -0.2,-0.2 m -0.1,0.7 0.5,0.2 m -0.5,-0.2 -0.1,0 0,-0.1 m -86.4,34 0.6,0.2 m -0.9,0.4 0.2,0 0.3,0 0.2,-0.2 0.2,-0.2 m -0.9,0.4 0.2,-0.6 m 0,0 0,0 0.1,0 m 0.6,0.2 -0.5,-0.2 m -0.2,0 -0.2,0.6 m 4.3,4.1 0,0 m 1.1,-2.4 0,0.1 m 0,0 -0.8,1.8 m -3.8,-1.2 2,0.9 m 1,-2.1 -2.1,-0.9 m 0,0 -0.9,2.1 m 2,0.9 1,-2.1 m -4.7,0.6 1.1,-2.4 m 4,4.8 -5,-2.2 m 6.2,-0.3 -0.8,1.9 m -4.2,-4.2 4.9,2.2 m 0,0 0,0 0.1,0 0,0.1 m -6.2,0.3 0,0 -0.1,-0.1 0,-0.1 m 131.1,66.8 -0.1,0 -0.1,0 m 0.5,-0.5 -0.3,0.5 m 0.3,-0.5 -0.3,-0.1 -0.3,0 -0.2,0.1 -0.2,0.2 m 0.5,0.3 -0.5,-0.3 m 0.7,0.3 0.3,-0.5 m -1,0.3 0.5,0.2 m 0,0 0.1,0.1 0,-0.1 0.1,0 m -3.6,-5.1 0,0 m -1.3,2.3 0,0 m 0,0 1,-1.8 m 0.5,2.5 2,1.1 m 0,0 1.1,-2 m 0,0 -1.9,-1.1 m 0,0 -1.2,2 m -1.5,-0.7 1,-1.8 m 5.2,2.3 -1.3,2.3 m 1.2,-2.4 0,0 0.1,0 0,0.1 m -4.3,-2.6 4.2,2.5 m -6.1,-0.3 0,0 -0.1,-0.1 0.1,0 m 4.7,2.8 -4.7,-2.7 m 1.4,-2.4 0.5,0.2 m -0.9,0.3 0.2,0.1 0.3,0 0.2,-0.2 0.2,-0.2 m -0.6,-0.2 -0.3,0.5 m 0.3,-0.5 0,0 0,-0.1 0.1,0 0,0.1 m 0.5,0.2 -0.5,-0.3 m 0.5,0.3 0,0 m -0.5,-0.3 0,0 0,0.1 m 0,-0.1 0,0 -0.1,0 0,0.1 m -109.9,20.8 0.4,-0.4 m 0,1 0.2,-0.2 0,-0.3 -0.1,-0.3 -0.1,-0.2 m 0,1 -0.4,-0.4 m 0,0 0,0 0,-0.1 0,-0.1 m 0.4,-0.4 -0.4,0.4 m 0,0.2 0.4,0.4 m 1.5,1.4 -1.5,-1.4 m 2.4,-3.2 -1.5,1.7 m 0,0 1.7,1.5 m 0,0 1.5,-1.7 m 0,0 -1.7,-1.5 m -0.9,4.6 -1.9,-1.8 m 5.4,-1.9 -3.3,3.6 m 1.7,-5.9 1.5,1.3 m -5.3,2.7 3.6,-4 m -3.6,4.2 0,0 0,-0.1 0,-0.1 m 3.6,-4 0.1,0 0.1,0 m 1.9,1.7 0.1,0.1 0,0.1 m -3.7,4 0,0.1 -0.1,0 -0.1,0 m 3.9,-4.1 -0.4,0.4 m -0.1,-0.9 -0.1,0.2 -0.1,0.3 0.1,0.2 0.2,0.2 m 0.3,-0.6 -0.4,-0.3 m 0.4,0.3 0.1,0.1 0,0.1 m -0.4,0.4 0.4,-0.4 m -0.4,0.4 0,0 m 0.4,-0.4 0,0 m 0,0 0,0 0,-0.1 -0.1,-0.1 m 13.4,15.4 0,0 0,-0.1 m 0.5,0.3 -0.5,-0.2 m 0.5,0.2 0.1,-0.2 0,-0.3 -0.2,-0.2 -0.2,-0.2 m -0.2,0.6 0.2,-0.6 m 0,0 -0.2,0.6 m 0,0.1 0.5,0.3 m 2.4,-0.9 1,-2 m -3,1.1 2,0.9 m 1,-2 -2.1,-0.9 m 0,0 -0.9,2 m 1.5,2.6 -2.4,-1.1 m 2.6,1 -0.1,0 0,0.1 -0.1,0 m 2.4,-5.1 -2.2,5 m -0.3,-6.2 1.9,0.9 m -4.2,4.2 2.2,-5 m -2.2,5.1 0,0 0,-0.1 m 2.2,-5 0,0 0,-0.1 0.1,0 m 2.4,1.1 0,0 0.1,0 0,0.1 m -0.3,0.6 0,0 0.1,0 m 0,0 0.2,-0.6 m 0,0 -0.3,0.6 m -0.3,-0.9 -0.1,0.2 0.1,0.3 0.1,0.2 0.2,0.2 m 0.2,-0.7 -0.5,-0.2 m 0.5,0.2 0.1,0 0,0.1 M 6.3,166 6.2,165.5 m 0.8,0.6 -0.1,-0.3 -0.2,-0.2 -0.2,-0.1 -0.3,0 m 0.8,0.6 -0.6,0 m 0,0 0,0 -0.1,0 0,-0.1 m -0.1,-0.5 0.1,0.5 m 0.1,0.2 0.6,-0.1 m -0.8,-3.9 0.2,2.2 m 0,0 2.2,-0.2 m 0,0 -0.2,-2.3 m 0,0 -2.2,0.3 m 2.8,3.7 -2,0.2 m -0.2,0 -0.4,0 m 2.1,-5.8 0.6,5.4 m -3.3,-5.2 2,-0.2 M 6.3,166 5.7,160.6 m 0.7,5.5 0,0 -0.1,0 0,-0.1 m -0.6,-5.4 0,0 0,-0.1 0.1,0 m 2.6,-0.3 0,0 0.1,0 0,0.1 m 0.6,5.4 0,0.1 -0.1,0.1 m -0.4,-5 -0.1,-0.6 m 0,0 0,0 -0.1,-0.1 m 0.1,0.1 0.1,0.6 m -0.8,-0.6 0.1,0.2 0.2,0.3 0.2,0.1 0.3,0 m -0.2,-0.7 -0.6,0.1 m 0.6,-0.1 0,0 0.1,0.1 M 60.4,50.6 59.9,50.9 m 0.2,-0.9 -0.2,0.2 -0.1,0.2 0,0.3 0.1,0.2 m 0.2,-0.9 0.3,0.4 m 0,0 0,0.1 0,0.1 m -0.5,0.3 0.5,-0.3 m 0,-0.2 -0.3,-0.4 m -4.3,3.8 -1.2,-1.7 m 2.5,0.5 1.8,-1.3 m 0,0 -1.3,-1.8 m 0,0 -1.9,1.3 m 0,0 1.4,1.8 m 1.8,-4.3 1.5,2.1 m -1.7,-2.1 0,0 0.1,0 0.1,0 m -4.6,3.2 0.5,-0.3 m 0,0 3.9,-2.9 m -4.4,3.4 0,-0.1 -0.1,0 0.1,0 0,-0.1 m 1.5,2.3 -1.2,-1.7 m 1.4,1.7 -0.1,0 -0.1,0 m 4.6,-3.2 -4.4,3.2 m 4.4,-3.4 0,0.1 0,0.1 m -6.1,1.1 0,0 m 0,0 0.3,0.4 m -0.3,-0.4 0,0 m 0.3,0.4 0.2,-0.2 0.1,-0.2 0,-0.3 -0.1,-0.2 m -0.5,0.3 0.5,-0.3 m -0.5,0.5 -0.1,-0.1 0.1,-0.1 m 0.3,0.6 0.2,-0.2 0,-0.1 0.1,-0.1 0,-0.2 0,-0.1 -0.1,-0.2 m 0,0 0,0 m 0,0 0,0 m -0.1,0 -0.4,0.3 M -63,54.7 -62.5,55 m -1,0.2 0.3,0.1 0.3,0 0.2,-0.1 0.2,-0.2 m -1,0.2 0.3,-0.5 m 0,0 0.1,0 0.1,0 m -0.2,0 -0.3,0.5 m 1,-0.2 -0.5,-0.3 m 0,0 -0.1,0 -0.1,0 m 4.9,2.9 -1,1.7 m 1,-1.7 0,0 m -1.3,2.2 0,0 m -0.2,-2.9 -2,-1.2 m 0,0 -1.1,2 m 0,0 1.9,1.1 m 0,0 1.2,-1.9 m -4.7,0.1 1.3,-2.3 m 3,4.9 -4.2,-2.5 m 6.1,0.5 -1,1.7 m -3.7,-4.6 4.7,2.7 m 0,0 0,0 0,0.1 0,0.1 m -6.1,-0.5 -0.1,0 0,-0.1 m 4.8,2.9 -0.5,-0.3 m 0.9,-0.3 -0.2,-0.1 -0.3,0.1 -0.2,0.1 -0.2,0.2 m 0.6,0.2 0.3,-0.5 m -0.3,0.5 0,0.1 -0.1,0 m -0.5,-0.3 0.5,0.3 m -0.5,-0.3 0,0 m 0.5,0.3 0,0 m 0,0 0,0 0.1,0 0,-0.1 m -12.7,46.8 0.6,-0.1 m -0.5,0.8 0.2,-0.1 0.2,-0.2 0.1,-0.2 0,-0.3 m -0.5,0.8 -0.2,-0.5 m 0,0 0,-0.1 0.1,-0.1 m 0.6,-0.1 -0.6,0.1 m 0.6,-0.1 0,0 m -0.7,0.3 0.1,0.5 m 5.5,-1.7 0.4,2 m -3.8,1.2 2.2,-0.5 m -0.4,-2.2 -2.3,0.5 m 0,0 0.5,2.2 m 2.2,-0.5 -0.4,-2.2 m 2,2.2 -5.3,1.1 m 4.9,-3.8 0.5,2.5 m -5.5,1.2 -0.6,-2.5 m 5.4,-1.3 0.1,0 0.1,0 0,0.1 m -5.5,1 5.3,-1.1 m -5.4,1.3 0,-0.1 0.1,0 0,-0.1 m 6,1.5 0,0.1 0,0.1 -0.1,0 m -5.3,1.1 0,0 -0.1,0 0,-0.1 m 5.5,-1.2 -0.1,-0.5 m -0.5,0.8 0.5,-0.1 m 108.7,44.8 -0.1,0 -0.1,0 m 0.6,-0.3 -0.4,0.3 m 0.4,-0.3 -0.2,-0.2 -0.2,-0.1 -0.3,0 -0.2,0.1 m 0.3,0.5 -0.3,-0.5 m 0,0 0.3,0.5 m 0,0 0,0 0.1,0 0.1,0 m 2.1,-1.5 -2.1,1.5 m -2.2,-3.3 1.3,1.8 m 0.5,-3.1 -1.8,1.3 m 3.1,0.5 -1.3,-1.8 m -0.5,3.1 1.8,-1.3 m 1.2,1.3 -2.1,1.5 m -1.1,-6.1 3.2,4.4 m -5.5,-2.9 1.7,-1.2 m 1.5,5.8 -3.2,-4.4 m 0,0 0,0 0,-0.1 0,-0.1 m 5.5,2.9 0,0 0,0.1 0,0.1 m -2.9,-4.1 -0.3,-0.5 m -0.2,0 0.1,0 0.1,0 m 0,0 0.3,0.5 m -0.9,-0.2 0.2,0.2 0.2,0.1 0.3,0 0.2,-0.1 M 41,147 l -0.4,0.3 m 0.6,-0.3 0,0 m -0.2,0 0,0 m 0,0 0,0 m 0.2,0 0,0 -0.1,0 -0.1,0 m -3.3,-116.8 0,0 m 0,0 0,0 m -0.2,-0.9 -0.1,0.2 0,0.1 0,0.2 0.1,0.1 0,0.1 0.2,0.2 m -0.2,-1 -0.1,0.3 0,0.1 0,0.2 0.1,0.1 0,0.1 0.2,0.2 m 0,0 0.3,-0.5 m 0,-0.2 -0.5,-0.3 m -1.7,3.7 1.2,-2 m 0,0 -2,-1.1 m 0,0 -1.1,2 m 0,0 1.9,1.1 m -0.1,-4.7 2.3,1.3 m -5.2,3.5 2.8,-4.7 m -0.5,6.1 -1.7,-1 m 4.6,-3.7 -0.3,0.5 m 0,0 -2.4,4.2 m 2.7,-4.9 0,0.1 0,0.1 m -2.7,4.7 0,0 -0.1,0.1 -0.1,-0.1 m -2.2,-1.3 0,0 -0.1,0 0,-0.1 m 2.8,-4.7 0,0 0,-0.1 0.1,0 m -2.6,4.3 -0.3,0.5 m 0.1,0.1 -0.1,0 0,-0.1 m 0.1,0.1 0.5,0.3 m 0,0 0.1,-0.2 -0.1,-0.3 -0.1,-0.2 -0.2,-0.2 m -0.3,0.5 0.3,-0.5 m 17.2,6.3 0,0.1 0,0.1 m -0.4,-0.6 0.4,0.4 m -0.4,-0.4 -0.2,0.3 0,0.2 0,0.3 0.2,0.2 m 0.4,-0.4 -0.4,0.4 m 0,0 0.4,-0.4 m 0,-0.2 -0.4,-0.4 m -1.6,-1.3 1.6,1.3 m -2.6,0 -1.5,1.7 m 0,0 1.7,1.5 M 49,40 47.3,38.4 M 47.5,41.6 49,40 M 46.5,43 45,41.7 m 3.3,-4.6 2,1.7 m -5.4,1.9 3.3,-3.6 m 2.1,1.9 -3.7,4 m 3.7,-4.2 0,0 0,0.1 0,0.1 m -3.7,4 0,0 0,0.1 -0.1,0 0,-0.1 m -2,-1.7 0,0 0,-0.1 0,-0.1 m 3.7,-4 0,0 0,-0.1 0.1,0 0,0.1 m -3.8,4 0.4,-0.4 m 0.1,1 0.1,-0.3 0,-0.2 0,-0.3 -0.2,-0.2 m -0.4,0.6 0.5,0.4 m -0.5,-0.4 0,-0.1 0,-0.1 m 0.4,-0.4 -0.4,0.4 m 0.4,-0.4 0,0 m -0.4,0.4 0,0 m 0,0 0,0.1 0,0.1 M 9.1,19.7 9,20.2 m -0.6,-0.7 0.1,0.3 0.1,0.2 0.2,0.2 0.2,0 M 8.4,19.5 9,19.6 m 0,0 0,0 0.1,0 0,0.1 M 9,20.2 9.1,19.7 M 9,19.5 l -0.6,0 m -2.2,3.7 2.2,0.3 M 6.4,21 6.2,23.2 M 8.6,21.2 6.4,21 m 2,2.5 0.2,-2.3 M 6.4,19.3 9,19.6 m -3.3,5.2 0.6,-5.4 m 2.1,5.8 -2,-0.2 m 2.1,0.1 0,0 0,0.1 -0.1,0 m 0.7,-5.5 -0.6,5.4 m 0.5,-5.5 0,0 0.1,0 0,0.1 m -3.3,5.2 0,0 -0.1,0 0,-0.1 m 0.6,-5.4 0,0 0,-0.1 0.1,0 m -0.6,4.9 -0.1,0.6 m 0.1,0.1 0,0 -0.1,0 0,-0.1 m 0.1,0.1 0.6,0.1 m 0,0 0,-0.3 L 6.2,24.5 6,24.3 5.8,24.2 m -0.1,0.6 0.1,-0.6 m -73.6,97.1 0.5,-0.2 m -0.3,0.9 0.2,-0.1 0.1,-0.3 0.1,-0.2 -0.1,-0.3 m -0.3,0.9 -0.3,-0.5 m 0,0 0,0 0,-0.1 0.1,0 0,-0.1 m 0.5,-0.2 -0.5,0.2 m -0.1,0.2 0.3,0.5 m 4.9,-2.8 0,0 m 0,0 0.8,1.9 m -1.3,1 -1,-2.1 m -2,1 0.9,2 m 0,0 2.1,-0.9 m -1,-2.1 -2,1 m 3.5,-1.8 0.8,1.8 m -4.9,2.9 -1.1,-2.4 m 1.2,2.4 0,0 -0.1,0 m 5.1,-2.2 -5,2.2 m 5.1,-2.3 0,0 0,0.1 -0.1,0 m -1.1,-2.6 0,0 0.1,0 0,0.1 m -5.1,2.1 5,-2.2 m -5.1,2.4 0,0 0,-0.1 0.1,0 0,-0.1 m 126.5,15.8 -0.5,-0.3 m 1,-0.2 -0.3,-0.1 -0.2,0 -0.3,0.1 -0.2,0.2 m 1,-0.2 -0.3,0.5 m 0,0 -0.1,0 -0.1,0 m -0.5,-0.3 0.5,0.3 m 0,0 0,0 0.1,0 0.1,0 m -1.8,-4.3 -1.4,1.8 m 0,0 1.9,1.3 m 1.3,-1.8 -1.8,-1.3 m 0.5,3.1 1.3,-1.8 m -4.6,-0.3 1.2,-1.7 m 0.5,-0.5 4.4,3.2 m 0,0.2 -1.5,2.1 m -0.2,0 -4.4,-3.2 m 0,0 0,0 -0.1,-0.1 0.1,0 m 6.1,1 0,0 0,0.1 0,0.1 m -4,-3.1 -0.4,-0.3 m 0,0 -0.1,0 -0.1,0 m 0.2,0 0.4,0.4 m -0.9,0.1 0.2,0.1 0.3,0 0.2,-0.1 0.2,-0.1 m -0.6,-0.4 -0.3,0.5 m 0.3,-0.5 0,0 0.1,0 0.1,0 M 28.6,160.5 28.4,160 m 0.9,0.3 -0.2,-0.2 -0.2,-0.1 -0.2,-0.1 -0.3,0.1 m 0.9,0.3 -0.5,0.3 m 0,0 -0.1,0 -0.1,-0.1 m 0,0 0,0.1 0.1,0 0.1,0 m 0.6,-4.6 -2.1,0.9 m 0,0 0.9,2 m 0,0 2.1,-0.9 m 0,0 -0.9,-2 m 1.8,3.5 -2.4,1.1 m 0.2,-6.2 2.2,5 m -4.7,-4 1.8,-0.8 m 0.3,5.9 -2.2,-5 m 0,0 0,0 0,-0.1 0.1,0 m 4.7,4 0,0 0,0.1 m -2,-4.6 -0.2,-0.5 m 0,0 0.2,0.5 m -0.9,-0.3 0.2,0.2 0.2,0.1 0.3,0.1 0.2,-0.1 m -0.3,-0.6 -0.6,0.3 m 0.6,-0.3 0,0 0.1,0.1 M 31.2,26.1 31,26.6 m -0.4,-0.9 0,0.2 0,0.3 0.2,0.2 0.2,0.2 m -0.4,-0.9 0.6,0.2 m 0,0 0,0 0,0.1 0,0.1 m -0.2,0.5 0.2,-0.5 m 0,-0.2 -0.6,-0.2 m -0.3,1.7 -2.1,-0.9 m -0.9,2 2.1,1 m -1.2,-3 -0.9,2 m 2.1,1 0.9,-2.1 m -1.5,-2.5 2.4,1 m -2.6,-1 0,0 0.1,0 0,-0.1 0.1,0 0,0.1 m -2.4,5 2.2,-5 m -2.1,5.1 0,0 -0.1,0 0,-0.1 m 2.5,1.2 -1.9,-0.8 m 2,0.7 0,0.1 -0.1,0 m 2.3,-5 L 29,31 m 2.2,-5.1 0,0 0,0.1 0,0.1 m -4.5,3.3 -0.1,0 m 0,0 -0.2,0.5 m 0,0 0.2,-0.5 M 27,30.3 27.1,30 27,29.7 26.9,29.5 26.6,29.4 M 26.5,30 27,30.3 m -0.5,-0.3 -0.1,0 0,-0.1 M 14,165.1 l 0,0 -0.1,-0.1 m 0.7,0 -0.6,0.1 m 0.6,-0.1 -0.1,-0.3 -0.2,-0.2 -0.2,-0.1 -0.3,0 m 0.1,0.6 -0.1,-0.6 m 0,0 0.1,0.6 m -0.1,-0.6 0,0 m 0.1,0.6 0,0 m 0.1,0.1 0.6,-0.1 m -1.2,-3.8 0.5,2.2 m 0,0 2.2,-0.5 m 0,0 -0.5,-2.2 m 0,0 -2.2,0.5 m 2.1,-2.1 1.2,5.3 m -0.1,0.1 -2.6,0.6 m -1.1,-5.6 2.5,-0.5 m 1.3,5.4 0,0 0,0.1 -0.1,0 m -1.2,-5.5 0,0 0.1,0 0,0.1 m -2.7,0.6 0,-0.1 0,-0.1 0.1,0 m 0.9,4.9 -1,-4.7 m 1.2,5.4 0,0 -0.1,-0.1 m 1.5,-6 -0.5,0.1 m 0.8,0.5 -0.1,-0.5 m 52.2,-95 -0.5,0.2 m 0.3,-0.9 -0.2,0.2 -0.1,0.2 -0.1,0.2 0.1,0.3 m 0.3,-0.9 0.3,0.5 m 0,0 0,0.1 -0.1,0 0,0.1 m -0.5,0.2 0.5,-0.2 m 0.1,-0.2 -0.3,-0.5 m -3.4,2 2,-0.9 m -3,-1.2 1,2.1 m 1.1,-3 -2.1,0.9 m 3,1.2 -0.9,-2.1 m 1.5,-0.9 1.1,2.4 m -6.2,-0.2 4.9,-2.2 m -3.9,4.7 -0.8,-1.8 m 5.9,-0.3 -5,2.2 m 5.1,-2.4 0,0 0,0.1 -0.1,0 0,0.1 m -5,2.2 0,0 -0.1,0 0,-0.1 m -1.1,-2.4 0,0 0,-0.1 0.1,0 m 4.9,-2.2 0.1,0 0.1,0 m -4.6,2 -0.5,0.2 m -126.2,64.7 0,0 0,-0.1 0.1,0 m 0.2,0.6 -0.3,-0.5 m 0.3,0.5 0.2,-0.2 0.1,-0.2 0,-0.3 -0.1,-0.2 m -0.4,0.3 0.4,-0.3 m 0,0 -0.4,0.3 m -0.1,0.1 0.3,0.5 m 1.3,-1.2 1.1,2 m 0.8,-3.1 -1.9,1.1 m 1.1,2 2,-1.1 m 0,0 -1.2,-2 m -2,4.1 0,0 -0.1,0 -0.1,0 m 0,0 -1.3,-2.3 m 6.2,-0.4 -4.7,2.7 m 4.7,-2.8 0,0 0,0.1 m -1.3,-2.4 1,1.7 m -1.1,-1.7 0,-0.1 0.1,0 0,0.1 m -4.8,2.7 4.7,-2.7 m -4.8,2.8 0,0 0,-0.1 0.1,0 m 5.6,0 0.5,-0.3 m 0,-0.1 0,0 0,0.1 m 0,-0.1 -0.3,-0.5 m 0,0 -0.2,0.1 -0.1,0.3 0,0.2 0.1,0.3 m 0.5,-0.3 -0.5,0.3 m -11.6,-14.2 0.5,-0.2 m -0.4,0.9 0.2,-0.1 0.2,-0.3 0,-0.2 0,-0.3 m -0.4,0.9 -0.2,-0.6 m 0,0 0,0 0,-0.1 0.1,0 m -0.1,0.2 0.2,0.5 m -0.1,-0.7 -0.1,0 0,0.1 0,0.1 m 5.4,-1.8 0.6,1.9 m -2.2,-1.2 -2.1,0.7 m 0,0 0.7,2.1 m 0,0 2.1,-0.7 m 0,0 -0.7,-2.1 m 2.3,1.9 -5.2,1.7 m -0.1,-0.1 -0.8,-2.5 m 5.4,-1.7 0.6,1.9 m -5.9,-0.3 5.1,-1.7 m -5.2,1.8 0,0 0,-0.1 0.1,0 m 5.1,-1.7 0.1,0 0.1,0 0,0.1 m 0.8,2.5 0,0 0,0.1 -0.1,0 m -5.2,1.7 0,0 -0.1,0 0,-0.1 m 5.3,-1.6 0.1,0 0,-0.1 m -0.1,0.1 -0.5,0.2 m 0.4,-0.9 -0.2,0.2 -0.2,0.2 0,0.2 0,0.3 m 0.6,-0.3 -0.2,-0.6 m 0.2,0.6 0,0 0,0.1 -0.1,0 m 28.8,-86.8 0.3,0.5 m -0.9,-0.3 0.2,0.2 0.2,0.1 0.3,0.1 0.2,-0.1 m -0.9,-0.3 0.5,-0.3 m 0,0 0,0 0.1,0 0,0.1 m 0.3,0.5 -0.3,-0.5 m -0.1,-0.1 -0.5,0.3 m 2.3,3.3 -1.1,-2 m -2,1.1 1.1,2 m 0,0 2,-1.1 m -1.1,-2 -2,1.1 m -1,-1.4 2.3,-1.3 m 0.4,6.2 -2.7,-4.7 m 5.1,3.4 -1.7,1.1 m -1,-5.9 2.7,4.7 m 0,0 0.1,0 0,0.1 -0.1,0 m -5.1,-3.4 0,0 0,-0.1 0,-0.1 m 2.4,4.4 0.3,0.5 m 0.1,0 0,0.1 -0.1,-0.1 m 0.1,0 0.5,-0.2 m 0,0 -0.1,-0.2 -0.3,-0.2 -0.2,0 -0.3,0.1 m 0.3,0.5 -0.3,-0.5 m -36.1,42.1 0.6,0.1 m -0.8,0.6 0.2,0 0.3,-0.1 0.2,-0.2 0.1,-0.3 m -0.8,0.6 0.1,-0.6 m 0,0 0,0 0,-0.1 0.1,0 m 0.6,0.1 -0.6,-0.1 m -0.1,0.1 -0.2,0.6 m 5.7,0.6 -0.4,2 m -4,-0.4 2.3,0.4 m 0,0 0.4,-2.2 m 0,0 -2.2,-0.5 m 0,0 -0.5,2.3 m -1.7,-0.2 0.6,-2.6 m -0.5,2.7 0,0 -0.1,-0.1 m 5.4,1.2 -5.3,-1.1 m 6,-1.5 -0.4,2 m -5,-3.3 5.3,1.2 m -5.4,-1.1 0,0 0,-0.1 0.1,0 m 5.3,1.2 0.1,0 0,0.1 m -0.5,2.5 0,0.1 -0.1,0 -0.1,0 m -0.5,-0.1 0.5,0.1 m 0,0 0.1,0 0.1,0 0,-0.1 m -0.2,0.1 -0.5,-0.1 m 0.8,-0.5 -0.3,0 -0.2,0.1 -0.2,0.2 -0.1,0.2 m 0.7,0 0.1,-0.5 m -0.1,0.5 0,0.1 -0.1,0 -0.1,0 m 138.8,29.4 0,0.1 -0.1,0 m 0.2,-0.6 -0.1,0.5 m 0.1,-0.5 -0.2,0 -0.3,0.1 -0.2,0.1 -0.1,0.3 m 0.6,0.1 -0.6,-0.1 m 0,0 0.6,0.1 m 0.1,-0.1 0.1,-0.5 m -5.6,-0.7 0.4,-2 m 1.7,0 -0.4,2.2 m 0,0 2.2,0.5 m 0.5,-2.2 -2.3,-0.5 m 1.8,2.7 0.5,-2.2 m 1.7,0.2 -0.6,2.5 m 0.5,-2.7 0,0 0,0.1 0.1,0 0,0.1 m -5.5,-1.3 5.4,1.1 m -5.5,-1 0,0 0,-0.1 0.1,0 m -0.6,2.6 0.4,-1.9 m -0.3,2.1 -0.1,0 0,-0.1 0,-0.1 m 5.4,1.3 -5.3,-1.1 m 5.4,1 0,0 0,0.1 -0.1,0 m -4.2,-3.8 -0.6,-0.1 m 0,0 0,0 -0.1,0 0,0.1 m 0,0 0,-0.1 0.1,0 m -0.1,0.1 -0.1,0.5 m 0,0 0.3,0 0.2,-0.1 0.2,-0.1 0.1,-0.3 m -0.6,-0.1 0.6,0.1 m -76.5,60.3 -0.1,0 0,-0.1 0,-0.1 m 0.7,0.2 -0.6,0 m 0.6,0 -0.1,-0.2 -0.1,-0.3 -0.2,-0.1 -0.2,-0.1 m -0.1,0.5 0.1,-0.5 m -0.1,0 0,0.5 m 0.1,0.2 0.6,0 m 2.2,-3.7 -2.2,-0.3 m 2,2.5 0.2,-2.2 m -2.5,2 2.3,0.2 m -2,-2.5 -0.3,2.3 m 2.3,1.9 -2.6,-0.2 m 0.6,-5.7 2,0.2 m 0.7,0.2 -0.6,5.4 m -2.2,-5.7 0,0 0,-0.1 0.1,0 m -0.7,5.5 0.6,-5.4 m -0.5,5.6 0,0 -0.1,-0.1 0,-0.1 m 3.3,-5.2 0,0 0.1,0 0,0.1 m -0.6,5.4 0,0.1 -0.1,0 m 0.6,-4.9 0.1,-0.6 m -0.1,-0.1 0,0 0.1,0 0,0.1 m -0.1,-0.1 -0.6,-0.1 m 0,0 0,0.3 0.2,0.2 0.2,0.2 0.2,0.1 m 0.1,-0.6 -0.1,0.6 m 41.5,-4 0,0 -0.1,0 0,-0.1 m 0.6,-0.2 -0.5,0.3 m 0.5,-0.3 -0.2,-0.2 -0.2,-0.1 -0.3,0 -0.2,0.1 m 0.3,0.4 -0.3,-0.4 m 0,0 0.3,0.5 m 0.1,0 0.5,-0.3 m 0.8,-2.4 -1.2,-2 m -1.9,1.2 1.1,1.9 m 0,0 2,-1.1 m -1.2,-2 -1.9,1.2 m 4.1,2.2 -2.3,1.3 m -0.4,-6.2 2.7,4.7 m -5.1,-3.4 1.7,-1 m 1,5.8 -2.8,-4.7 m 0,0 0,0 0,-0.1 0.1,0 m 5.1,3.4 0,0.1 0,0.1 m -2.4,-4.4 -0.3,-0.5 m 0,0 0.3,0.5 m -1,-0.2 0.2,0.2 0.3,0.1 0.2,0 0.3,-0.1 m -0.5,-0.5 -0.5,0.3 m 0.5,-0.3 0.1,0 0.1,0 M -6.3,19.4 l 0.1,0.5 m -0.8,-0.6 0.1,0.3 0.2,0.2 0.2,0.1 0.3,0 m -0.8,-0.6 0.6,0 m 0,0 0,0 0.1,0 0,0.1 m 0.1,0.5 -0.1,-0.5 m -0.1,-0.1 -0.6,0 m 0.8,3.9 -0.2,-2.2 m 0,0 -2.3,0.2 m 0,0 0.3,2.3 m 0,0 2.2,-0.3 m -2.3,1.9 -0.6,-5.4 m 0.1,-0.1 2,-0.3 m 0.2,0 0.4,0 m 0.6,5.6 -2,0.2 m 1.5,-5.7 0.6,5.4 m -0.7,-5.5 0,0 0.1,0 0,0.1 m 0.6,5.4 0,0 0,0.1 -0.1,0 m -2.6,0.3 0,0 -0.1,0 0,-0.1 m -0.6,-5.4 0,0 0,-0.1 0.1,0 m 0.4,4.9 0.1,0.6 m 0,0 0,0 0,0.1 0.1,0 m 0,0 -0.1,0 0,-0.1 m 0.1,0.1 0.6,-0.1 m 0,0 -0.1,-0.2 -0.2,-0.2 -0.2,-0.2 -0.3,0 m 0.1,0.6 -0.1,-0.6 m 75.4,99.4 0,0 -0.1,0 -0.1,0 m 0.4,-0.5 -0.2,0.5 m 0.2,-0.5 -0.2,-0.1 -0.3,0 -0.2,0.2 -0.2,0.2 m 0.5,0.2 -0.5,-0.2 m 0,0 0.5,0.2 m 0.2,0 0.2,-0.5 m -3.8,-1.3 2.1,0.9 m 0,0 0.9,-2 m 0,0 -2,-1 m 0,0 -1,2.1 m 4.7,-0.6 -1.1,2.4 m -4,-4.8 5,2.2 m -6.2,0.3 0.8,-1.9 m 4.2,4.2 -4.9,-2.2 m 0,0 0,0 -0.1,0 0,-0.1 m 6.2,-0.3 0,0.1 0.1,0 0,0.1 m -4.6,-2.1 -0.5,-0.3 m -79.4,45.4 0,0 -0.1,0 0,-0.1 m 0.7,0.2 -0.6,-0.1 m 0.6,0.1 0,-0.2 -0.1,-0.3 -0.2,-0.2 -0.3,-0.1 m -0.1,0.6 0.1,-0.6 m 0,0 -0.1,0.6 m 0.1,0.1 0.5,0.2 m 0,-1.8 2.2,0.5 m 0,0 0.5,-2.2 m 0,0 -2.2,-0.5 m 0,0 -0.5,2.2 m 2,2.2 -2.5,-0.6 m 2.7,0.5 0,0 -0.1,0 0,0.1 -0.1,0 m 1.3,-5.4 -0.1,0.5 m 0,0 -1,4.8 m 1,-5.5 0,0 0.1,0 0,0.1 0,0.1 m -2.6,-0.7 2,0.4 m -2.2,-0.3 0,0 0.1,-0.1 0.1,0 m -1.3,5.4 1.1,-5.3 m -1,5.4 0,0 -0.1,0 0,-0.1 m 3.3,-5 0,0.3 0.1,0.2 0.2,0.2 0.2,0.1 m 0.1,-0.5 -0.1,0.5 m 0,-0.7 -0.5,-0.1 m 0.5,0.1 0.1,0 0,0.1 0,0.1 m -0.6,-0.3 0,0.3 0,0.1 0.1,0.1 0,0.1 0.2,0.1 0.2,0.1 m 0,0 0,0 m 0,0 0,0 m 0,0 0.1,-0.5 m -24.9,-4.5 0,0 m 0,0 0,0 m 0.2,1 0.1,-0.3 0,-0.1 0,-0.1 -0.1,-0.2 -0.1,-0.1 -0.1,-0.2 m 0.2,1 0.1,-0.3 0,-0.1 0,-0.1 -0.1,-0.2 0,-0.1 -0.2,-0.2 m -0.1,0 -0.2,0.5 m 0,0.2 0.5,0.3 m 2.5,-0.6 1.1,-1.9 m -2,-1.2 -1.1,2 m 0,0 2,1.1 m 1.1,-1.9 -2,-1.2 m 0.2,4.7 -2.3,-1.3 m 5.1,-3.5 -2.7,4.7 m 0.4,-6.1 1.8,1 m -4.6,3.7 0.3,-0.5 m 0,0 2.4,-4.2 m -2.7,4.9 0,0 0,-0.1 0,-0.1 m 2.7,-4.7 0,0 0.1,0 m 2.3,1.3 0,0 0.1,0 0,0.1 -0.1,0 m -2.7,4.7 0,0.1 -0.1,0 m 2.6,-4.3 0.3,-0.5 m -0.1,-0.1 0,0 0.1,0 0,0.1 -0.1,0 m 0,-0.1 -0.5,-0.3 m 0,0 -0.1,0.2 0,0.3 0.2,0.3 0.2,0.1 m 0.2,-0.5 -0.2,0.5 m 97.5,-95.8 -0.5,0.3 m 0.3,-0.9 -0.2,0.2 -0.1,0.2 0,0.3 0,0.2 m 0.3,-0.9 0.3,0.5 m 0,0 0,0 0,0.1 -0.1,0 m -0.5,0.3 0.5,-0.2 M 64.5,57 64.2,56.5 m -1.3,1.2 -1.1,-2 m -0.8,3.1 1.9,-1.1 m -1.1,-2 -2,1.2 m 0,0 1.2,1.9 m 2,-4.1 0,0 0.1,0 0.1,0 m 0,0 1.3,2.3 m -6.2,0.4 4.7,-2.7 m -3.4,5.1 -1,-1.7 m 1.1,1.8 0,0 -0.1,0 0,-0.1 m 4.8,-2.7 -4.7,2.8 m 4.8,-2.9 0,0 0,0.1 -0.1,0 m -6.1,0.5 0,-0.1 -0.1,0 0.1,0 0,-0.1 m 0.5,-0.3 -0.5,0.3 m 0,0.2 -0.1,-0.1 0.1,-0.1 m 0,0.2 0.2,0.5 m 0,0 0.2,-0.2 0.2,-0.3 0,-0.2 -0.1,-0.3 m -0.5,0.3 0.5,-0.3 m -119.2,77.9 0,-0.1 0,-0.1 m 0.3,0.6 -0.3,-0.4 m 0.3,0.4 0.2,-0.2 0.1,-0.2 0,-0.3 -0.1,-0.2 m -0.5,0.3 0.5,-0.3 m 0,0 -0.5,0.3 m 0,0.2 0.3,0.4 m 4.3,-3.8 1.2,1.7 m -3,2.6 1.8,-1.3 m -1.3,-1.8 -1.8,1.3 m 0,0 1.3,1.8 m 1.8,-1.3 -1.3,-1.8 m -1.8,4.3 -1.5,-2.1 m 1.7,2.1 0,0 -0.1,0 -0.1,0 m 4.6,-3.2 -0.5,0.3 m 0,0.1 -3.9,2.8 m 4.4,-3.3 0,0 0,0.1 m -1.5,-2.3 1.2,1.7 m -1.4,-1.7 0.1,0 0.1,0 m -4.6,3.2 4.4,-3.2 m -4.4,3.4 0,0 0,-0.1 0,-0.1 m 6.1,-1 0,0 0,0.1 m 0,-0.1 -0.3,-0.5 m 0,0 -0.2,0.2 -0.1,0.2 0,0.3 0.1,0.2 m 0.5,-0.3 -0.5,0.3 m 0.5,-0.5 0,0 0,0.1 m 0,0 0,0 m -0.3,-0.5 -0.2,0.2 -0.1,0.1 0,0.1 0,0.2 0,0.1 0.1,0.3 m 0,-0.1 0,0 0,0.1 m 0,0 0,0 m 0,0 0.5,-0.4 M 44.4,34 44.1,34.5 m -0.2,-1 -0.1,0.3 0,0.2 0.1,0.3 0.2,0.2 m -0.2,-1 0.5,0.4 m 0,0 0,0 0,0.1 m -0.3,0.5 0.3,-0.5 m -0.3,0.5 0,0 m 0.3,-0.5 0,0 m 0,-0.2 -0.5,-0.3 m -1.6,-1.2 1.6,1.2 m -2,3.5 1.3,-1.9 m 0,0 -1.8,-1.3 m 0,0 -1.3,1.8 m 0,0 1.8,1.4 m -3,-0.3 3.2,-4.4 M 41,38.4 39.4,37.3 m 2.7,-5 0,0 0.1,0 0.1,0 m 0,0 2.1,1.6 m -0.3,0.6 -2.9,3.9 m 3.2,-4.5 0,0 0,0.1 m -3.2,4.4 0,0 -0.1,0.1 -0.1,-0.1 m -2.1,-1.5 0,0 0,-0.1 0,-0.1 m 0.3,-0.4 -0.3,0.4 m -60.4,-14.5 0,0 0.1,0 0,0.1 m -0.7,0.1 0.6,-0.2 m -0.6,0.2 0.1,0.2 0.3,0.2 0.2,0.1 0.3,-0.1 m -0.2,-0.5 0.2,0.5 m 0,0 -0.2,-0.5 m 0,0 0,-0.1 -0.1,0 m 0.3,1.7 -2.1,0.7 m 2.8,1.4 -0.7,-2.1 m -1.4,2.8 2.1,-0.7 m -2.8,-1.4 0.7,2.1 m -1.5,-3.5 0,-0.1 0,-0.1 0.1,0 m 0,0 2.5,-0.8 m -0.9,6.1 -0.2,-0.5 m 0,0 -1.5,-4.6 m 4.3,4.4 -1.9,0.6 m 0.3,-5.9 1.7,5.2 m 0,0 0,0 0,0.1 -0.1,0 m -2.5,0.8 0,0 -0.1,0 0,-0.1 m 0.1,0.1 0.6,-0.2 m 0,0 -0.2,-0.2 -0.2,-0.2 -0.2,0 -0.3,0 m 0.2,0.5 -0.2,-0.5 m 0.9,0.4 -0.1,-0.2 -0.1,-0.1 -0.2,-0.1 -0.1,0 -0.1,0 -0.3,0 m 0,0 0,0 m 0,0 0,0 m 0.2,0.5 0,0.1 0.1,0 m 91.8,88.4 -0.5,-0.2 m 0.9,-0.4 -0.3,0 -0.3,0 -0.2,0.2 -0.1,0.2 m 0.9,-0.4 -0.2,0.5 m 0,0 0,0.1 -0.1,0 -0.1,0 m 0.2,-0.1 0.2,-0.5 m -5.6,-1.2 0.6,-2 m 1.1,2.3 2.1,0.7 m 0,0 0.7,-2.1 m 0,0 -2.1,-0.7 m 0,0 -0.7,2.1 m 4.4,-1.2 0,0 0.1,0 0,0.1 m 0,0 -0.8,2.5 m -4.5,-4.3 5.2,1.7 m -6.1,0.9 0.6,-1.9 m -0.5,2 -0.1,0 0,-0.1 m 5.2,1.8 -5.1,-1.7 m 5.3,1.6 0,0 0,0.1 -0.1,0 -0.1,0 m -4.4,-4.3 0,0 0,-0.1 0.1,0 m -0.1,0.1 0,0 0.1,-0.1 m -0.1,0.1 -0.2,0.5 m 0,0 0.3,0.1 0.2,-0.1 0.3,-0.2 0.1,-0.2 m -0.6,-0.2 0.6,0.2 M 16.7,21 16.6,21.6 m -0.6,-0.8 0,0.2 0.1,0.3 0.2,0.2 0.3,0.1 m -0.6,-0.8 0.6,0.1 m 0,0 0,0 0.1,0 0,0.1 M 16.6,21.6 16.7,21 M 16.6,20.9 16,20.8 m -2.1,1.2 -0.5,2.3 m 2.2,0.4 0.5,-2.2 m 0,0 -2.2,-0.5 m -0.5,2.3 2.2,0.4 m -1.6,-4.3 2.6,0.5 m -2.7,-0.5 0,0 0.1,0 0,-0.1 0,0.1 m -1.2,5.4 0.1,-0.6 m 0,0 1,-4.8 m -1,5.5 -0.1,0 0,-0.1 m 2.6,0.6 -2,-0.4 m 2.1,0.4 0,0 -0.1,0 m 1.3,-5.4 -1.2,5.4 m 1.1,-5.5 0,0 0.1,0 0,0.1 m -3.8,4.9 -0.1,0 0,-0.1 m 0.1,0.1 0.5,0.1 m 0,0 0,-0.3 -0.1,-0.2 -0.2,-0.2 -0.2,-0.1 m -0.1,0.6 0.1,-0.6 m 0.5,0.8 0,-0.2 0,-0.2 -0.1,-0.1 -0.1,-0.1 -0.1,-0.1 -0.2,-0.1 m 0,0 0,0 m 0,0 0,0 m 0,0 -0.1,0.6 m -61,11.3 0.4,0.4 m -1,-0.1 0.2,0.2 0.3,0.1 0.3,-0.1 0.2,-0.1 m -1,-0.1 0.4,-0.3 m 0,0 0.1,-0.1 0.1,0.1 m 0.4,0.4 -0.4,-0.4 m -0.2,0 -0.4,0.3 m -1.5,1.4 1.5,-1.4 m 3,2.7 -1.5,-1.7 m 0,0 -1.7,1.6 m 0,0 1.5,1.6 m 0,0 1.7,-1.5 m 1.2,1.2 -1.5,1.3 m -0.6,0.4 -3.6,-4 m 0,-0.2 1.9,-1.7 m 3.9,4 0,0 0,0.1 0,0.1 -0.1,0 m -3.6,-4.2 3.7,4 m -5.8,-2.1 0,0 0,-0.1 0,-0.1 m 3.3,3.8 0.3,0.4 m 0.2,0 0,0 -0.1,0.1 0,-0.1 -0.1,0 m 0.2,0 0.4,-0.4 m 0,0 -0.2,-0.1 -0.2,-0.1 -0.3,0.1 -0.2,0.1 m 0.3,0.4 -0.3,-0.4 m 68.4,120.5 -0.2,-0.5 m 0.9,0.4 -0.2,-0.2 -0.2,-0.2 -0.2,0 -0.3,0 m 0.9,0.4 -0.6,0.2 m 0,0 0,0 -0.1,0 0,-0.1 m -0.2,-0.5 0.2,0.5 m 0,0 0,0.1 0.1,0 m -1,-3.8 0.7,2.1 m 0,0 2.1,-0.7 m -0.7,-2.1 -2.1,0.7 m 2.8,1.4 -0.7,-2.1 m -2.8,-0.9 1.9,-0.6 m 2.3,5.2 -2.5,0.8 m 2.6,-0.9 0,0 0,0.1 -0.1,0 m -1.6,-5.3 0.2,0.5 m 0,0 1.5,4.7 m -2.7,0.8 -1.7,-5.1 m 0,0 0,-0.1 0,-0.1 0.1,0 m 1.9,-0.6 0.1,0.2 0.3,0.2 0.2,0.1 0.3,-0.1 m -0.2,-0.5 0.2,0.5 m -0.3,-0.6 -0.6,0.2 m 0.6,-0.2 0,0 0.1,0 0,0.1 m -0.7,0.1 0.1,0.2 0.1,0.1 0.2,0.1 0.1,0 0.1,0.1 0.3,-0.1 m 0,0 0,0 m 0,0 0,0 m -0.2,-0.5 0,-0.1 -0.1,0 M -73,83.6 l 0.5,0.1 m -0.7,0.6 0.2,0 0.3,-0.2 0.1,-0.2 0.1,-0.2 m -0.7,0.6 0,-0.6 m 0,0 0,0 0.1,-0.1 0.1,0 m 0.5,0.1 -0.5,-0.1 m 0,0 -0.1,0 -0.1,0.1 m 3.7,2.9 0.3,-2.3 m -2.5,2 2.2,0.3 m -2,-2.5 -0.2,2.2 m 2.5,-2 -2.3,-0.2 m 3.6,2.9 -5.4,-0.6 m 5.8,-2.1 -0.2,2 m -5.7,0 0.2,-2.6 m -0.1,2.7 -0.1,0 0,-0.1 m 5.6,0.6 0,0 0,0.1 -0.1,0 m 0.3,-2.8 0,0 0.1,0 0,0.1 m -5.5,-0.7 5.4,0.6 m -5.6,-0.5 0,0 0.1,0 0,-0.1 0.1,0 m 4.5,3.4 0.6,0 m 0.1,-0.1 0,0 0,0.1 -0.1,0 m 0.1,-0.1 0.1,-0.6 m 0,0 -0.3,0.1 -0.2,0.1 -0.2,0.2 -0.1,0.2 m 0.6,0.1 -0.6,-0.1 m 140.8,-8.1 -0.6,0.1 m 0.5,-0.8 -0.2,0.1 -0.2,0.2 -0.1,0.3 0,0.2 m 0.5,-0.8 0.2,0.6 m 0,0 0,0 -0.1,0 0,0.1 m -0.6,0.1 0,0 m 0,0 0.6,-0.1 m 0.1,-0.1 -0.2,-0.6 m -5.4,1.7 -0.4,-2 m 2,1.5 2.3,-0.4 m 0,0 -0.5,-2.3 m 0,0 -2.2,0.5 m 0,0 0.4,2.2 m 3.4,-3.2 0.6,2.6 m -0.7,-2.7 0,0 0.1,0 0,0.1 m -5.4,1.1 5.3,-1.2 m -5.4,1.3 0,0 0,-0.1 0.1,0 m 0.4,2.6 -0.5,-2.5 m 0.6,2.6 0,0 -0.1,0 0,-0.1 m 5.5,-1 -5.4,1.1 m 5.5,-1.2 0,0 -0.1,0 0,0.1 m -6,-1.5 0.1,0.5 m 0.5,-0.8 -0.5,0.1 m -67.8,89.2 0,-0.6 m 0.7,0.7 -0.1,-0.2 -0.1,-0.3 -0.3,-0.1 -0.2,-0.1 m 0.7,0.7 -0.6,0 m 0,0 -0.1,0 0,-0.1 m 0,-0.6 0,0.6 m 0.1,0.1 0.6,0 m 1.8,-4 -2.2,0 m 0,0 0,2.3 m 0,0 2.2,0 m 0,0 0,-2.3 m -2.4,4 0.6,0 m 2,0 -2,0 m -0.2,0 -0.4,0 m 2.7,-0.1 0,0 0,0.1 -0.1,0 m 0.1,-5.5 0,5.4 m -0.1,-5.6 0,0 0,0.1 0.1,0 0,0.1 m -2.7,-0.2 2,0 m -2.1,0.2 0,-0.1 0.1,-0.1 m -0.1,5.6 0,-5.4 m 0.1,5.5 0,0 -0.1,0 0,-0.1 m 2.7,-5.6 -0.6,0 m 0.7,0.7 0,-0.5 m 0,0 0,0.5 m -0.7,-0.7 0.1,0.3 0.1,0.2 0.3,0.2 0.2,0 m -0.1,-0.7 -0.6,0 m 0.6,0 0,0.1 0.1,0 0,0.1 m -45.8,-9.3 0,-0.1 0,-0.1 m 0.5,0.5 -0.5,-0.3 m 0.5,0.3 0.1,-0.2 0,-0.3 -0.1,-0.3 -0.2,-0.1 m -0.3,0.4 0.3,-0.4 m 0,-0.1 -0.3,0.5 m 0.3,-0.4 0,0 0,-0.1 m -0.3,0.5 0,0 m 0,0.2 0.5,0.3 m 1.6,1.2 -1.6,-1.2 m 2,-3.4 -1.3,1.8 m 0,0 1.8,1.3 m 0,0 1.3,-1.8 m 0,0 -1.8,-1.3 m -0.4,4.6 -2.1,-1.5 m 2.3,1.5 0,0 -0.1,0 -0.1,0 m 3.4,-4.4 -3.2,4.4 m 1.1,-6.1 1.6,1.2 m -4.7,2.8 2.9,-4 m -3.2,4.6 0,0 0,-0.1 0,-0.1 m 3.2,-4.4 0,0 0.1,0 0.1,0 m 2.1,1.5 0,0 0,0.1 0,0.1 m -0.3,0.4 0.3,-0.4 m -34.8,-57.3 0,0 0,-0.1 0.1,0 m -0.1,0.7 0,-0.6 m 0,0.6 0.3,-0.1 0.2,-0.1 0.1,-0.2 0.1,-0.3 m -0.6,0 0.6,0 m 0,0 -0.6,0 m -0.1,0.1 0,0.6 m 4.2,-0.7 1.3,0 m -0.6,2.8 -0.7,0 m -0.2,-2.5 -2.3,0 m 0,0 0,2.2 m 0,0 2.3,0 m 0,0 0,-2.2 m 1.5,2.5 -0.5,0 m 0,0 -4.9,0 m -0.1,-0.1 0,-2.6 m 0.1,2.7 0,0 -0.1,0 0,-0.1 m 5.7,0 0,0 0,0.1 -0.1,0 -0.1,0 m 0.2,-2.7 0,2 m -0.2,-2.1 0.1,0 0.1,0.1 m -5.6,-0.1 5.4,0 m -5.5,0.1 0,0 0,-0.1 0.1,0 m 5.6,2.1 -0.3,0.1 -0.2,0.1 -0.2,0.3 0,0.2 m 0.5,0 -0.5,0 m 0.7,-0.1 0,-0.6 m 0,0.6 0,0.1 -0.1,0 -0.1,0 m 0.2,-0.7 -0.3,0.1 -0.1,0.1 -0.1,0 -0.1,0.2 -0.1,0.1 0,0.2 m 0,0 0,0 m 0,0 0,0 m 0.7,-0.1 0,-0.6 m -0.7,0.7 0.5,0 m 0,0 0.1,0 0.1,0 0,-0.1 m 39.2,-69.1 0.1,-0.1 0,0.1 0.1,0 m -0.7,0.2 0.5,-0.2 m -0.5,0.2 0.1,0.2 0.3,0.1 0.2,0.1 0.3,-0.1 m -0.2,-0.5 0.2,0.5 m -0.2,-0.5 -0.1,0 0,-0.1 -0.1,0 m 1.5,3.7 -1,-2 m 0,0 -2,0.9 m 0.9,2.1 2.1,-1 m -3,-1.1 0.9,2.1 m 0.4,1.5 -2.2,-4.9 m 4.7,3.9 -1.8,0.9 m -2.9,-5 2.4,-1 m 0.2,0 2.2,5 m 0,0 0,0 0,0.1 -0.1,0 m -4.7,-3.9 0,-0.1 0,-0.1 m 1.9,4.6 0.3,0.5 m 0.1,0.1 0,0 -0.1,0 0,-0.1 m 0.1,0.1 0.6,-0.2 m 0,0 -0.2,-0.3 -0.2,-0.1 -0.3,0 -0.2,0 m 0.2,0.5 -0.2,-0.5 m 102.8,63.6 -0.6,0 m 0.7,-0.7 -0.3,0.1 -0.2,0.1 -0.1,0.3 -0.1,0.2 m 0.7,-0.7 0,0.6 m 0,0 0,0.1 -0.1,0 m -0.6,0 0.6,0 m 0.1,-0.1 0,-0.6 m -4.3,0.7 -1.3,0 m 0.7,-2.8 0.6,0 m 0.3,2.5 2.3,0 m 0,0 0,-2.2 m 0,0 -2.3,0 m 0,0 0,2.2 m -1.6,-2.5 0.6,0 m 0,0 4.9,0 m 0.1,0.1 0,2.6 m -0.1,-2.7 0,0 0.1,0 0,0.1 m -5.7,0 0,0 0,-0.1 0.1,0 M 68,94 68,92 m 0.1,2.1 0,0 -0.1,0 0,-0.1 m 5.6,0.1 -5.5,0 m 5.6,-0.1 0,0 0,0.1 -0.1,0 M 68,92 l 0.3,-0.1 0.2,-0.1 0.2,-0.2 0,-0.3 m -0.6,0 0.6,0 M 68,91.4 68,92 m 0,-0.6 0,0 0.1,-0.1 M 68,92 l 0.3,-0.1 0.1,0 0.1,-0.1 0.1,-0.1 0.1,-0.2 0,-0.2 m 0,0 0,0 m 0,0 0,0 M 68,91.4 68,92 m 0.7,-0.7 -0.6,0 m 0,0 0,0 -0.1,0.1 m 5.4,-5.1 0,0.1 -0.1,0 m 0.1,-0.7 0,0.6 m 0,-0.6 -0.3,0.1 -0.2,0.2 -0.1,0.2 0,0.3 m 0.5,-0.1 -0.5,0.1 m 0,0 0.5,-0.1 m 0.1,-0.1 0,-0.6 m -4.2,-1.4 0.3,2.3 m 0,0 2.2,-0.3 m 0,0 -0.2,-2.2 m 0,0 -2.3,0.2 m 4,-0.6 0.2,2.6 M 67.6,84.2 73,83.6 m -5.2,3.3 -0.2,-2 m 5.7,1.5 -5.4,0.6 m 5.5,-0.7 0,0 0,0.1 -0.1,0 m -5.4,0.6 0,0 -0.1,0 0,-0.1 m -0.3,-2.6 0,0 0,-0.1 0.1,0 m 5.4,-0.6 0.1,0 0,0.1 0.1,0 m -5,0.4 -0.6,0.1 m 0,0 0,0 -0.1,0 0,0.1 m 0,0 0,0 0,-0.1 0.1,0 m -0.1,0.1 0.1,0.6 m 0,0 0.2,-0.1 0.2,-0.2 0.2,-0.2 0,-0.3 m -0.6,0.1 0.6,-0.1 m -92.3,78.2 0.2,-0.6 m 0.4,0.9 0.1,-0.3 -0.1,-0.2 -0.2,-0.3 -0.2,-0.1 m 0.4,0.9 -0.5,-0.2 m 0,0 -0.1,0 0,-0.1 m 0.2,-0.6 -0.2,0.6 m 0,0 0,0 0,0.1 0.1,0 m 0.7,-1.6 2.1,0.7 m 0,0 0.7,-2.1 m -2.1,-0.7 -0.7,2.1 m 2.8,-1.4 -2.1,-0.7 m 2.9,-0.7 -1.7,5.1 m -0.1,0.1 -2.5,-0.8 m 2.6,0.7 0,0.1 -0.1,0 m 1.7,-5.4 0,0 0.1,0 0,0.1 0,0.1 m -2.6,-1 2,0.6 m -2.1,-0.5 0,0 0,-0.1 0.1,0 m -1.8,5.3 1.7,-5.2 m -1.6,5.3 0,0 -0.1,0 0,-0.1 m 4.2,-3.8 0.2,-0.5 m -0.1,-0.2 0.1,0 0,0.1 0,0.1 m -0.1,-0.2 -0.5,-0.2 m 0,0 -0.1,0.3 0.1,0.3 0.2,0.2 0.2,0.1 m 0.2,-0.5 -0.2,0.5 M 1.3,19 l 0,0 0.1,0 0,0.1 M 0.7,19 1.3,19 m -0.6,0 0.1,0.3 0.1,0.2 0.3,0.1 0.2,0.1 m 0,-0.6 0,0.6 m 0,0 0,-0.6 M 1.3,19 0.7,19 m -1.8,4 2.2,0 m -2.2,-2.3 0,2.3 m 2.2,-2.3 -2.2,0 m 2.2,2.3 0,-2.3 M 1.3,19 0.7,19 m -2,0 2,0 m 0.2,0 0.4,0 m -2.7,0.1 0,0 0,-0.1 0.1,0 m -0.1,5.6 0,-5.5 m 0.1,5.6 0,0 -0.1,0 0,-0.1 m 2.7,0.1 -2,0 m 2.1,-0.1 0,0 0,0.1 -0.1,0 m 0.1,-5.6 0,5.5 M 1.3,19 l 0,0 0.1,0 0,0.1 m -2.7,5.6 0.6,0 m -0.7,-0.7 0,0.6 m 0,0 0,-0.6 m 0.7,0.7 -0.1,-0.3 -0.1,-0.2 -0.3,-0.2 -0.2,0 m 0.1,0.7 0.6,0 m -0.6,0 -0.1,0 0,-0.1 m -71.9,74.4 0.5,-0.1 m -0.6,0.8 0.3,-0.1 0.2,-0.2 0.1,-0.2 0,-0.3 m -0.6,0.8 0,-0.6 m 0,0 0,0 0,-0.1 0.1,0 m 0.5,-0.1 -0.5,0.1 m -0.1,0.1 0,0.6 m 3.9,-0.8 -2.2,0.2 m 0,0 0.2,2.3 m 0,0 2.3,-0.3 m 0,0 -0.3,-2.2 m -3.7,2.8 -0.2,-2.6 m 0.4,2.7 -0.1,0 -0.1,0 0,-0.1 m 5.6,-0.5 -5.4,0.6 m 5.5,-0.7 0,0 0,0.1 -0.1,0 m -0.2,-2.7 0.2,2 m -0.3,-2.1 0,0 0.1,0.1 m -5.5,0.5 5.4,-0.6 m -5.5,0.7 0,0 0,-0.1 0.1,0 m 5.1,2.3 0.6,0 m 0,0 0,-0.1 0.1,0 0,-0.1 m 0,0 0,0.1 -0.1,0 m 0.1,-0.1 -0.1,-0.5 m 0,0 -0.2,0 -0.2,0.2 -0.2,0.2 0,0.3 m 0.6,-0.1 -0.6,0.1 m 63.4,-49.1 0,4.5 m 0,-4.5 9.6,0 m 0,0 0,4.5 m 0,0 -9.6,0 M 89,92.7 88.9,88.2 88.6,83.8 88,79.3 87.2,74.9 86.2,70.6 85,66.3 83.5,62 81.9,57.9 80,53.8 l -2,-4 -2.3,-3.8 -2.4,-3.8 -2.6,-3.6 -2.8,-3.5 -3,-3.3 -3.2,-3.2 -3.3,-3 -3.4,-2.9 -3.6,-2.6 -3.7,-2.5 -3.8,-2.3 -4,-2.1 -4,-2 L 31.7,9.5 27.5,8.1 23.2,6.8 18.9,5.7 14.5,4.9 10,4.3 5.6,3.9 1.1,3.7 -3.4,3.8 -7.8,4 l -4.5,0.6 -4.4,0.7 -4.4,0.9 -4.3,1.2 -4.2,1.4 -4.2,1.6 -4.1,1.8 -4,2 -3.9,2.2 -3.8,2.4 -3.6,2.6 -3.5,2.7 -3.4,3 -3.2,3.1 -3.1,3.2 -2.9,3.4 -2.7,3.6 -2.6,3.7 -2.3,3.8 -2.2,3.9 -1.9,4 -1.8,4.1 -1.5,4.2 -1.3,4.3 -1.1,4.4 -0.9,4.3 -0.7,4.5 -0.5,4.4 -0.2,4.5 0,4.4 0.2,4.5 0.5,4.5 0.7,4.4 0.9,4.4 1.1,4.3 1.3,4.3 1.5,4.2 1.8,4.1 1.9,4 2.2,3.9 2.3,3.8 2.6,3.7 2.7,3.6 2.9,3.4 3.1,3.3 3.2,3.1 3.4,2.9 3.5,2.8 3.6,2.5 3.8,2.4 3.9,2.2 4,2 4.1,1.9 4.2,1.5 4.2,1.4 4.3,1.2 4.4,0.9 4.4,0.8 4.5,0.5 4.4,0.3 4.5,0 4.5,-0.2 4.4,-0.3 4.5,-0.7 4.4,-0.8 4.3,-1.1 4.3,-1.2 4.2,-1.5 4.2,-1.7 4,-1.9 4,-2.1 3.8,-2.3 3.7,-2.5 3.6,-2.7 3.4,-2.9 3.3,-3 3.2,-3.2 3,-3.3 2.8,-3.5 2.6,-3.6 2.4,-3.7 2.3,-3.9 2,-4 1.9,-4.1 1.6,-4.1 1.5,-4.2 1.2,-4.4 1,-4.3 0.8,-4.4 0.6,-4.5 0.3,-4.4 0.1,-4.5 m -64.9,5.7 0,-11.4 m 11.3,11.4 -11.3,0 m 0,-11.4 11.3,0 m 0,0 0,11.4 m -54.1,-25.5 0,-5.7 m 9.1,5.7 -9.1,0 m 9.1,-5.7 0,5.7 m -9.1,-5.7 9.1,0 M -41,38.4 l -0.1,0.1 -0.1,-0.1 m 0.2,0 0.4,-0.3 m 0,0 -0.2,-0.2 -0.2,-0.1 -0.3,0 -0.2,0.2 m 0.3,0.4 -0.3,-0.4 m 0.3,0.4 0,0 m 0.2,0 0,0 m 0,0 0,0 m -0.2,0 0,0 0,0.1 0.1,0 0.1,-0.1 m -22.4,27.7 0.6,0.2 m 0.1,-0.1 0,0.1 -0.1,0 m 0.1,-0.1 0.2,-0.5 m 0,0 -0.2,0 -0.3,0 -0.2,0.1 -0.2,0.3 m 0.6,0.2 -0.6,-0.2 m 35.6,2.2 0,3.4 m 1.7,0 -1.7,0 m 1.7,-3.4 0,3.4 m 0,-3.4 -1.7,0 m -34.4,53.7 0.5,-0.3 m 0.1,-0.1 0,0 0,0.1 -0.1,0 m 0.1,-0.1 -0.3,-0.5 m 0,0 -0.2,0.1 -0.1,0.2 -0.1,0.3 0.1,0.3 m 0.5,-0.3 -0.5,0.3 m 123.8,-58.2 0,0 0,-0.1 0.1,0 m -0.1,0.1 0.2,0.6 m 0,0 0.3,-0.2 0.1,-0.2 0.1,-0.3 -0.1,-0.2 m -0.5,0.2 0.5,-0.2 m 0.6,55.6 0.5,0.3 m -0.9,0.3 0.3,0.1 0.3,-0.1 0.2,-0.1 0.1,-0.2 m -0.6,-0.2 -0.3,0.5 m 0.3,-0.5 0,0 0,-0.1 0.1,0 M 38.9,36.7 39.2,36.3 m 0.2,0.9 0.1,-0.2 0,-0.3 -0.1,-0.2 -0.2,-0.2 m -0.3,0.6 0.5,0.3 m -0.5,-0.3 0,0 0,-0.1 0,-0.1 m -77.8,111.8 0,0.1 0,0.1 m 0,-0.2 -0.5,-0.3 m 0,0 -0.1,0.2 0,0.3 0.1,0.2 0.2,0.2 m 0.3,-0.4 -0.3,0.4 m 37.5,13.1 0,-2.9 m 3.4,2.9 -0.3,0 m -2.8,0 -0.3,0 m 3.4,-2.9 0,2.9 m -3.4,-2.9 3.4,0 m 3.9,2.7 -0.3,-2.9 m 3.6,2.5 -0.2,0 m -2.9,0.3 -0.2,0.1 m 3,-3.2 0.3,2.8 m -3.6,-2.5 3.3,-0.3 m 4.2,2.2 -0.6,-2.8 m 3.9,2.1 -0.3,0 m -2.8,0.6 -0.2,0.1 m 2.7,-3.5 0.6,2.8 m -3.9,-2.1 3.3,-0.7 m 3.5,-0.9 3.2,-1.1 m 0,0 0.9,2.7 m 0,0 -0.3,0.1 m -2.7,0.9 -0.3,0.1 m 0,0 -0.8,-2.7 m 7.7,0.2 -1.2,-2.5 m 4.3,1.2 -0.3,0.1 m -2.6,1.1 -0.2,0.1 m 1.9,-3.9 1.2,2.6 m -4.3,-1.2 3.1,-1.4 m 4.6,0.8 -1.4,-2.4 m 4.4,0.7 -0.3,0.1 m -2.4,1.5 -0.3,0.1 m 1.6,-4.1 1.4,2.4 m -4.4,-0.7 3,-1.7 m 20.4,-14.7 -2.3,-1.7 m 4.3,-1 -0.2,0.2 m -1.7,2.3 -0.1,0.2 m -0.3,-4.4 2.3,1.7 m -4.3,1 2,-2.7 m -15.5,19.4 -1.6,-2.3 m 4.4,0.3 -0.2,0.2 m -2.3,1.6 -0.3,0.2 m 1.1,-4.3 1.7,2.3 m -4.4,-0.3 2.7,-2 m 4.7,-0.1 -1.9,-2.1 m 4.4,-0.2 -0.2,0.2 m -2.1,1.9 -0.2,0.2 m 0.6,-4.4 1.9,2.1 m -4.4,0.2 2.5,-2.3 m 2.6,-2.6 2.2,-2.5 m 0,0 2.1,1.9 m 0,0 -0.1,0.2 m -1.9,2.1 -0.2,0.2 m 0,0 -2.1,-1.9 m -20.1,-79.1 0,7.1 M 17,59.4 l 11.3,0 m -11.3,0 0,7.1 m 0,0 11.3,0"
         style="fill:none;stroke:#000000;stroke-opacity:1;stroke-width:0.709;stroke-linecap:round;stroke-linejoin:round;stroke-miterlimit:10;stroke-dasharray:none"
         id="path3178" /></g><g
       id="g3180"
       transform="translate(246.6,378.2)"><path
         d="m 0,0 0,0 m -0.4,-0.5 0,0 m 1,0.1 0,0 M 0.1,0 l 0,0 m 2,-1.8 0,0 m -3.8,-4.2 0,0 m -0.5,0.4 0,0 m 1,0 0,0 m -0.3,-0.4 0,0 m 8.5,-97.5 0,0 m 0.4,-0.5 0,0 m -5.5,2.3 0,0 m -0.4,-0.5 0,0 m 0,-0.1 0,0 m 0.4,-0.4 0,0 m -120,23.5 0,0 m 0.2,-0.5 0,0 m 5.4,1.8 0,0 m -0.8,2.4 0,0 m 0,0 0,0 m 0.2,-0.5 0,0 m 23.1,-39.6 0,0 m -2.6,1 0,0 m 2.4,3.6 0,0 m 1.5,-2.9 0,0 m 0.5,0.7 0,0 m -0.6,2.9 0,0 m -0.9,-0.1 0,0 m 111.8,32.6 0,0 m 0.1,0.7 0,0 m -5.3,1.6 0,0 m -0.6,-1.9 0,0 m -0.1,-0.7 0,0 m -119.6,70.2 0,0 m -0.5,0.6 0,0 m 5.6,-2.3 0,0 m 0.4,0.4 0,0 m 0,0.2 0,0 m -0.4,0.4 0,0 m -8.1,-91.2 0,0 m -0.7,-0.3 0,0 m 2.5,5.2 0,0 m 0.6,0.3 0,0 m 2.1,-11.4 0,0 m 0.4,0.4 0,0 m -0.6,-0.4 0,0 m -0.4,0.4 0,0 m 2.9,5.4 0,0 m -0.2,0 0,0 m 124.1,53.6 0,0 m 0.7,-0.1 0,0 m -5.4,-3.2 0,0 m -0.1,0.6 0,0 m 0.2,-0.7 0,0 m 0.6,0.1 0,0 m -82.4,-78.1 0,0 m 0.1,0.6 0,0 m -0.8,-0.5 0,0 m 1.5,4 0,0 m 0.3,1.3 0,0 m -2.1,0.5 0,0 m -0.5,0.1 0,0 m -0.3,-0.6 0,0 m 0.1,0.6 0,0 m 68.9,116.2 0,0 m 0.4,0.4 0,0 m 0.2,0 0,0 m 0.4,-0.4 0,0 m -2.9,-5.3 0,0 m 0.2,-0.1 0,0 m -27.7,-113.5 0,0 m 0.1,-0.7 0,0 m -3.7,4.8 0,0 m -0.5,-0.2 0,0 m 0.1,-0.7 0,0 m -86,34.8 0,0 m -0.9,0.4 0,0 m 0.2,-0.6 0,0 m 1.3,0.5 0,0 m 1.5,3.8 0,0 m 1.2,0.5 0,0 m 0.1,-0.1 0,0 m 0.3,-0.5 0,0 m 125.9,64.5 0,0 m -1,0.3 0,0 m -2.3,-4.7 0,0 m -0.6,-0.2 0,0 m -109.5,20.4 0,0 m -0.4,0.4 0,0 m 0,0.2 0,0 m 0.4,0.4 0,0 m 1.5,1.4 0,0 m 3.5,-3.7 0,0 m 0.3,-0.6 0,0 m 13.6,14.7 0,0 m 0.3,1 0,0 m -0.5,-0.3 0,0 m 3.1,-0.2 0,0 m -0.5,1.2 0,0 m 1.9,-4.4 0,0 m 33,9.9 0,0 m -0.1,-0.5 0,0 m 0.8,0.6 0,0 m 0.8,-5.8 0,0 m 0.8,0.6 0,0 m 51.3,-110 0,0 m 0.5,-0.3 0,0 m -0.3,-0.6 0,0 m -4.3,3.8 0,0 m -1.5,-2.1 0,0 m 0.3,0.4 0,0 m 0.1,-0.9 0,0 m -0.4,0.3 0,0 m -117.8,3.7 0,0 m 1,-0.2 0,0 m 2.3,4.6 0,0 m 0.6,0.2 0,0 m -12.7,46.8 0,0 m 0.6,-0.1 0,0 m -0.6,0.8 0,0 m 5.5,-1.7 0,0 m 0.5,2.5 0,0 m -0.1,-0.5 0,0 m 0.1,0.5 0,0 m -0.1,0.2 0,0 m -0.5,0.1 0,0 m 108.7,44.2 0,0 m 2.6,-1 0,0 m -2.4,-3.5 0,0 m -1.5,2.8 0,0 m -0.5,-0.7 0,0 m 0.6,-2.9 0,0 m 0.9,0.2 0,0 m -3.5,-117.8 0,0 m -0.3,0.5 0,0 m -0.2,-1 0,0 m 0.5,0.3 0,0 m -4.9,3 0,0 m 17.2,6.5 0,0 m -0.4,0.4 0,0 m 0.4,-0.6 0,0 m -0.4,-0.4 0,0 m -1.6,-1.3 0,0 m -3.4,3.6 0,0 m -0.4,0.6 0,0 m -35.4,-21.6 0,0 m -0.1,0.5 0,0 m -0.6,-0.7 0,0 m 0.6,0 0,0 m -3.2,5.4 0,0 m 0.6,0.1 0,0 m -0.7,-0.2 0,0 m 0.1,-0.6 0,0 m -73.1,96.9 0,0 m -0.5,0.2 0,0 m 0.2,0.7 0,0 m 0.9,1.9 0,0 m 1.2,-0.5 0,0 m 2.7,-4.3 0,0 m -1.2,0.6 0,0 m 2.2,1.3 0,0 m 120,15.8 0,0 m 0.7,0.3 0,0 m -2.5,-5.2 0,0 m -0.6,-0.3 0,0 m -27.2,28.9 0,0 m 0,0 0,0 m -0.5,-1.2 0,0 m 0.2,-4.7 0,0 m 0.9,0.3 0,0 m -0.2,-0.5 0,0 m 2,-127.8 0,0 m 0.2,-0.7 0,0 m -0.6,-0.2 0,0 m -2.5,0.4 0,0 m 0.5,-1.2 0,0 m -1.9,4.5 0,0 m -12.8,135.6 0,0 m -0.1,-0.6 0,0 m 0.8,0.6 0,0 m -1.6,-4.1 0,0 m -0.2,-1.2 0,0 m 2,-0.6 0,0 m 0.6,-0.1 0,0 m 0.2,0.1 0,0 m 0.1,0.5 0,0 m 51.6,-95.3 0,0 m 0.5,-0.2 0,0 m -0.2,-0.7 0,0 m -1,-1.9 0,0 m -1.2,0.5 0,0 m -1.4,3.8 0,0 m -1.2,0.5 0,0 m -1,-1.9 0,0 m 0.4,-0.9 0,0 m -0.5,0.2 0,0 m -126.1,64.6 0,0 m 0.4,-0.3 0,0 m -0.2,0.9 0,0 m 5.7,-1.5 0,0 m -0.3,0.9 0,0 m 0.5,-0.3 0,0 m -12,-13.2 0,0 m -0.1,-0.7 0,0 m 5.3,-1.6 0,0 m 0.6,1.9 0,0 m 0.1,0.7 0,0 m 28.8,-86.8 0,0 m 0.3,0.5 0,0 m -0.9,-0.3 0,0 m 3.4,4.5 0,0 m -0.7,-1.1 0,0 m -1.1,2.3 0,0 m -0.7,0.2 0,0 m -0.3,-0.5 0,0 m -35.5,42.2 0,0 m -0.9,0.6 0,0 m 0.2,-0.6 0,0 m 5.5,1.2 0,0 m -0.4,2 0,0 m -0.8,0.5 0,0 m 138.6,29.5 0,0 m 0.7,0 0,0 m 0.1,-0.5 0,0 m -5.6,-0.7 0,0 m 0.4,-2 0,0 m 0.8,-0.5 0,0 m -76.6,60.1 0,0 m 0,-0.5 0,0 m 0.1,0.7 0,0 m 0.6,0 0,0 m 2.6,-5.4 0,0 m -0.6,-0.1 0,0 m 0.7,0.2 0,0 m -0.1,0.6 0,0 m 41.4,-4 0,0 m -0.3,-0.5 0,0 m 0.9,0.2 0,0 m -3.4,-4.5 0,0 m 0.7,1.2 0,0 m 1.1,-2.3 0,0 m 0.7,-0.3 0,0 m 0.3,0.5 0,0 m -41.9,-132.1 0,0 m 0.1,0.5 0,0 m -0.8,-0.6 0,0 m -0.8,5.8 0,0 m -0.8,-0.6 0,0 m 74.7,99.2 0,0 m 0.9,-0.3 0,0 m -0.2,0.5 0,0 m -1.4,-0.5 0,0 m -1.4,-3.7 0,0 m -1.2,-0.6 0,0 m -0.1,0.1 0,0 m -0.3,0.5 0,0 m 0.9,-0.3 0,0 m -0.5,-0.3 0,0 m -79.4,44.7 0,0 m 0.5,0.9 0,0 m -0.5,-0.2 0,0 m 2.7,0.5 0,0 m 0.3,-1.3 0,0 m 0.7,-4.2 0,0 m -0.5,-0.1 0,0 m 0.5,0.8 0,0 m -25.1,-4.5 0,0 m 0.2,-0.5 0,0 m -0.2,0.7 0,0 m 0.5,0.3 0,0 m 4.4,-3.3 0,0 m 97.5,-95.7 0,0 m -0.5,0.2 0,0 m 0.3,-0.9 0,0 m -5.7,1.6 0,0 m -0.2,-0.7 0,0 m 0.5,-0.3 0,0 m -119.2,77.7 0,0 m 0.5,-0.3 0,0 m -0.2,0.9 0,0 m 4.3,-3.8 0,0 m 1.2,1.7 0,0 m 0.3,0.4 0,0 m 0,0.2 0,0 m -0.5,0.4 0,0 m 99.2,-100.3 0,0 m -0.3,0.5 0,0 m -0.2,-1 0,0 m 0.5,0.3 0,0 m -2.1,-1.5 0,0 m -1.1,6.1 0,0 m 0.8,-1 0,0 m -2,-2.2 0,0 m 0.5,-0.7 0,0 m -1.6,2.4 0,0 m 0.5,0.4 0,0 m -0.2,-1 0,0 m -60.4,-13.5 0,0 m -1.2,5.5 0,0 m 92.1,88.4 0,0 m 0.2,-0.5 0,0 m -5.6,-1.2 0,0 m 0.8,-2.5 0,0 m 0,0 0,0 m -0.2,0.5 0,0 m -48.3,-91.4 0,0 m -0.6,-0.8 0,0 m 0.6,0.1 0,0 m -2.7,-0.5 0,0 m -0.3,1.3 0,0 m -0.2,4.3 0,0 m -0.5,-0.1 0,0 m 0,-0.7 0,0 m -61.1,11.9 0,0 m 0.4,0.4 0,0 m -0.6,-0.4 0,0 m -0.4,0.3 0,0 m -1.5,1.4 0,0 m 3.8,4.2 0,0 m 0.4,-0.4 0,0 m -0.6,0.4 0,0 m -0.3,-0.4 0,0 m 68.2,120 0,0 m 1.2,-5.5 0,0 m -94.9,-73.4 0,0 m -0.7,0 0,0 m 5.5,2.6 0,0 m -0.1,0.6 0,0 m -0.1,0.1 0,0 m -0.6,0 0,0 m 140.2,-8.1 0,0 m 0.6,-0.1 0,0 m -0.1,-0.7 0,0 m -5.4,1.7 0,0 m -0.5,-2.5 0,0 m 0.1,0.6 0,0 m -0.1,-0.6 0,0 m 0.6,-0.3 0,0 m -0.5,0.1 0,0 m -67.8,89.2 0,0 m 0,-0.6 0,0 m 0.7,0.7 0,0 m -0.6,0 0,0 m 0.6,0 0,0 m 1.4,-5.7 0,0 m 0.6,0 0,0 m 0.1,0.7 0,0 m 0,-0.5 0,0 M -92.6,3 l 0,0 m 0.3,-0.5 0,0 m 0.2,1 0,0 m -0.5,-0.3 0,0 m 2.1,1.5 0,0 m 0.3,-5 0,0 m 0.8,-1.1 0,0 m 0.7,3.9 0,0 m 0.5,-0.7 0,0 m 0.6,-2 0,0 m 0.5,0.3 0,0 m -0.3,0.6 0,0 m -34.4,-57.8 0,0 m 0.6,0 0,0 m -0.7,0.1 0,0 m 0,0.6 0,0 m 4.2,-0.7 0,0 m 1.3,0 0,0 m -1.3,2.8 0,0 m 1.3,0 0,0 m 0.2,-0.7 0,0 m -0.7,0.7 0,0 m 40.1,-69.2 0,0 m 0,0 0,0 m 0.5,1.2 0,0 m -0.2,4.8 0,0 m -0.7,0.1 0,0 m -0.3,-0.5 0,0 m 102.9,63.6 0,0 m -0.6,0 0,0 m 0.7,-0.7 0,0 m 0,0.6 0,0 m -5.6,0.1 0,0 m 1.3,0 0,0 m -1.3,-2.8 0,0 m 1.3,0 0,0 m -1.4,0.7 0,0 m 0.7,-0.7 0,0 m 4.6,-4.9 0,0 m -0.5,0.1 0,0 m 0.6,-0.8 0,0 m -5.2,-1.6 0,0 m -92.1,77.6 0,0 m -0.1,0.7 0,0 m 4.2,-4.6 0,0 m -0.5,-0.2 0,0 m 0.4,0.9 0,0 m 21.3,-139.4 0,0 m 0,0.6 0,0 m -0.7,-0.7 0,0 m 0.6,0 0,0 m -0.6,0 0,0 m -1.4,5.7 0,0 m -0.6,0 0,0 m -0.1,-0.1 0,0 m 0,-0.6 0,0 m -71.9,75 0,0 m 0.5,-0.1 0,0 m -0.6,0.8 0,0 m 5.2,1.6 0,0 m 5.4,-35 0,0 m -0.6,-0.2 0,0 m 1.2,55.9 0,0 m 0.5,-0.3 0,0"
         style="fill:none;stroke:#000000;stroke-opacity:1;stroke-width:0.709;stroke-linecap:round;stroke-linejoin:round;stroke-miterlimit:10;stroke-dasharray:none"
         id="path3182" /></g><g
       id="g3184"
       transform="translate(501.3,224.4)"><path
         d="m 0,0 17.6,0 m 0,196.2 -17.6,0 m 0,0 -2.8,-2.8 M -2.8,2.9 0,0 m 0,196.2 0,0 0,-0.3 0,-0.4 0,-0.7 0,-0.9 0,-1.1 0,-1.3 0,-1.6 0,-1.7 0,-2 0,-2.2 0,-2.4 0,-2.5 0,-2.8 0,-2.9 0,-3.1 0,-3.3 0,-3.4 0,-3.6 0,-3.7 0,-3.8 0,-4 0,-4.1 0,-4.2 0,-4.3 0,-4.4 0,-4.4 0,-4.6 0,-4.5 0,-4.7 0,-4.6 L 0,104 0,99.3 0,94.6 0,89.9 0,85.2 0,80.6 0,76 0,71.4 0,66.9 0,62.5 0,58.1 0,53.9 0,49.8 0,45.7 0,41.8 0,38 0,34.4 0,30.9 0,27.5 0,24.3 0,21.3 0,18.5 0,15.8 0,13.4 0,11.1 0,9 0,7.2 0,5.5 0,4.1 0,2.8 0,1.8 0,1 0,0.5 0,0.1 0,0 m 17.6,132.1 13.6,0 m -13.6,-68 13.6,0 m 0,0 0,4.7 0,4.8 0,4.8 0,4.9 0,4.9 0,5 0,4.9 0,5 0,4.9 0,4.9 0,4.9 0,4.9 0,4.7 0,4.7 m -34,-129.2 0,0.1 0,0.3 0,0.6 0,0.7 0,1 0,1.2 0,1.5 0,1.6 0,1.8 0,2.1 0,2.2 0,2.4 0,2.7 0,2.8 0,2.9 0,3.2 0,3.2 0,3.5 0,3.6 0,3.7 0,3.9 0,3.9 0,4.1 0,4.2 0,4.2 0,4.4 0,4.4 0,4.5 0,4.5 0,4.5 0,4.6 0,4.6 0,4.6 0,4.6 0,4.6 0,4.5 0,4.6 0,4.4 0,4.4 0,4.4 0,4.2 0,4.2 0,4.1 0,4 0,3.8 0,3.7 0,3.6 0,3.5 0,3.3 0,3.1 0,3 0,2.8 0,2.6 0,2.4 0,2.2 0,2.1 0,1.8 0,1.7 0,1.4 0,1.2 0,1 0,0.8 0,0.5 0,0.3 0,0.2 m 20.4,-163 13.6,0 m -13.6,0 0,33.7 m 13.6,-33.7 0,33.7 m -13.6,101.7 0,-33.7 m 13.6,33.7 -13.6,0 m 13.6,0 0,-33.7 m -13.6,69.4 13.6,0 m -13.6,-35.7 0,4.3 0,4.4 0,4.4 0,4.5 0,4.5 0,4.5 0,4.5 0,4.6 m 13.6,0 0,-4.6 0,-4.5 0,-4.5 0,-4.5 0,-4.5 0,-4.4 0,-4.4 0,-4.3 m 0,-171 -13.6,0 m 0,0 0,4.5 0,4.6 0,4.5 0,4.4 0,4.5 0,4.4 0,4.4 0,4.3 m 13.6,0 0,-4.3 0,-4.4 0,-4.4 0,-4.5 0,-4.4 0,-4.5 0,-4.6 0,-4.5 m -13.6,-25.7 13.6,0 m -13.6,0 0,25.7 m 13.6,-25.7 0,25.7 m -13.6,232.3 13.6,0 m -13.6,0 0,-25.6 m 13.6,25.6 0,-25.6"
         style="fill:none;stroke:#000000;stroke-opacity:1;stroke-width:0.709;stroke-linecap:round;stroke-linejoin:round;stroke-miterlimit:10;stroke-dasharray:none"
         id="path3186" /></g><g
       id="g3188"
       transform="translate(686.4,224.4)"><path
         d="m 0,0 26.1,0 m 0,196.2 -26.1,0 m 0,0 -2.8,-2.8 M -2.8,2.9 0,0 m 0,196.2 0,0 0,-0.3 0,-0.4 0,-0.7 0,-0.9 0,-1.1 0,-1.3 0,-1.6 0,-1.7 0,-2 0,-2.2 0,-2.4 0,-2.5 0,-2.8 0,-2.9 0,-3.1 0,-3.3 0,-3.4 0,-3.6 0,-3.7 0,-3.8 0,-4 0,-4.1 0,-4.2 0,-4.3 0,-4.4 0,-4.4 0,-4.6 0,-4.5 0,-4.7 0,-4.6 L 0,104 0,99.3 0,94.6 0,89.9 0,85.2 0,80.6 0,76 0,71.4 0,66.9 0,62.5 0,58.1 0,53.9 0,49.8 0,45.7 0,41.8 0,38 0,34.4 0,30.9 0,27.5 0,24.3 0,21.3 0,18.5 0,15.8 0,13.4 0,11.1 0,9 0,7.2 0,5.5 0,4.1 0,2.8 0,1.8 0,1 0,0.5 0,0.1 0,0 m 26.1,132.1 13.6,0 m -13.6,-68 13.6,0 m 0,0 0,4.7 0,4.8 0,4.8 0,4.9 0,4.9 0,5 0,4.9 0,5 0,4.9 0,4.9 0,4.9 0,4.9 0,4.7 0,4.7 M -2.8,2.9 l 0,0.1 0,0.3 0,0.6 0,0.8 0,1 0,1.2 0,1.5 0,1.6 0,1.9 0,2 0,2.3 0,2.5 0,2.6 0,2.9 0,3 0,3.2 0,3.3 0,3.5 0,3.6 0,3.8 0,3.9 0,4 0,4.1 0,4.3 0,4.3 0,4.4 0,4.4 0,4.5 0,4.6 0,4.6 0,4.6 0,4.7 0,4.6 0,4.6 0,4.6 0,4.6 0,4.6 0,4.4 0,4.5 0,4.3 0,4.3 0,4.2 0,4 0,4 0,3.8 0,3.7 0,3.6 0,3.4 0,3.3 0,3.1 0,2.9 0,2.7 0,2.6 0,2.4 0,2.1 0,2 0,1.8 0,1.5 0,1.4 0,1.1 0,0.9 0,0.7 0,0.4 0,0.2 0,0.1 m 28.9,-163 13.6,0 m -13.6,0 0,33.7 m 13.6,-33.7 0,33.7 m -13.6,101.7 0,-33.7 m 13.6,33.7 -13.6,0 m 13.6,0 0,-33.7 m -13.6,69.4 13.6,0 m -13.6,-35.7 0,4.3 0,4.4 0,4.4 0,4.5 0,4.5 0,4.5 0,4.5 0,4.6 m 13.6,0 0,-4.6 0,-4.5 0,-4.5 0,-4.5 0,-4.5 0,-4.4 0,-4.4 0,-4.3 m 0,-171 -13.6,0 m 0,0 0,4.5 0,4.6 0,4.5 0,4.4 0,4.5 0,4.4 0,4.4 0,4.3 m 13.6,0 0,-4.3 0,-4.4 0,-4.4 0,-4.5 0,-4.4 0,-4.5 0,-4.6 0,-4.5 m -13.6,-25.7 13.6,0 m -13.6,0 0,25.7 m 13.6,-25.7 0,25.7 m -13.6,232.3 13.6,0 m -13.6,0 0,-25.6 m 13.6,25.6 0,-25.6"
         style="fill:none;stroke:#000000;stroke-opacity:1;stroke-width:0.709;stroke-linecap:round;stroke-linejoin:round;stroke-miterlimit:10;stroke-dasharray:none"
         id="path3190" /></g></g></svg>